<?xml version="1.0" encoding="utf-8"?>
<!-- Generator: Adobe Illustrator 22.1.0, SVG Export Plug-In . SVG Version: 6.00 Build 0)  -->
<svg version="1.1" id="Layer_1" xmlns="http://www.w3.org/2000/svg" xmlns:xlink="http://www.w3.org/1999/xlink" x="0px" y="0px"
	 viewBox="0 0 660 536.4" style="enable-background:new 0 0 660 536.4;" xml:space="preserve">
<style type="text/css">
	.st0{fill:#000000;}
</style>
<g>
	<path class="st0" d="M547,471.8c2,0,3.7-1.7,3.7-3.7c0-2-1.7-3.7-3.7-3.7c-2,0-3.7,1.7-3.7,3.7C543.3,470.1,545,471.8,547,471.8
		 M558.7,452h-1.2v19.7h1.2V452z M547,459.4c2,0,3.7-1.7,3.7-3.7s-1.7-3.7-3.7-3.7c-2,0-3.7,1.7-3.7,3.7S545,459.4,547,459.4
		 M528.5,465.6c2,0,3.7-1.7,3.7-3.7c0-2-1.7-3.7-3.7-3.7c-2,0-3.7,1.7-3.7,3.7C524.8,464,526.5,465.6,528.5,465.6 M494,472.4h19.7
		v-1.2H494V472.4z M513.7,461.9c0-2-1.7-3.7-3.7-3.7c-2,0-3.7,1.7-3.7,3.7c0,2,1.7,3.7,3.7,3.7C512.1,465.6,513.7,464,513.7,461.9
		 M501.4,461.9c0-2-1.7-3.7-3.7-3.7c-2,0-3.7,1.7-3.7,3.7c0,2,1.7,3.7,3.7,3.7C499.7,465.6,501.4,464,501.4,461.9 M494,452.7h19.7
		v-1.2H494V452.7z M482.9,468.1c0-2-1.7-3.7-3.7-3.7c-2,0-3.7,1.7-3.7,3.7c0,2,1.7,3.7,3.7,3.7C481.2,471.8,482.9,470.1,482.9,468.1
		 M482.9,455.7c0-2-1.7-3.7-3.7-3.7c-2,0-3.7,1.7-3.7,3.7s1.7,3.7,3.7,3.7C481.2,459.4,482.9,457.8,482.9,455.7 M448.3,471.8
		c2,0,3.7-1.7,3.7-3.7c0-2-1.7-3.7-3.7-3.7c-2,0-3.7,1.7-3.7,3.7C444.6,470.1,446.3,471.8,448.3,471.8 M460.1,452h-1.2v19.7h1.2V452
		z M448.3,459.4c2,0,3.7-1.7,3.7-3.7s-1.7-3.7-3.7-3.7c-2,0-3.7,1.7-3.7,3.7S446.3,459.4,448.3,459.4 M423.7,464.4
		c-2,0-3.7,1.7-3.7,3.7c0,2,1.7,3.7,3.7,3.7c2,0,3.7-1.7,3.7-3.7C427.4,466,425.7,464.4,423.7,464.4 M429.2,471.8h1.2V452h-1.2
		V471.8z M436,452c-2,0-3.7,1.7-3.7,3.7s1.7,3.7,3.7,3.7c2,0,3.7-1.7,3.7-3.7S438,452,436,452 M402.7,468.1c0-2-1.7-3.7-3.7-3.7
		c-2,0-3.7,1.7-3.7,3.7c0,2,1.7,3.7,3.7,3.7C401,471.8,402.7,470.1,402.7,468.1 M404.6,452.3l9.9,19.7l1.1-0.5l-9.9-19.7
		L404.6,452.3z M374.3,471.8c2,0,3.7-1.7,3.7-3.7c0-2-1.7-3.7-3.7-3.7s-3.7,1.7-3.7,3.7C370.6,470.1,372.3,471.8,374.3,471.8
		 M386,452h-1.2v19.7h1.2V452z M374.3,459.4c2,0,3.7-1.7,3.7-3.7s-1.7-3.7-3.7-3.7s-3.7,1.7-3.7,3.7S372.3,459.4,374.3,459.4
		 M362,452c-2,0-3.7,1.7-3.7,3.7s1.7,3.7,3.7,3.7s3.7-1.7,3.7-3.7S364,452,362,452 M345.4,452.3l9.9,19.7l1.1-0.5l-9.9-19.7
		L345.4,452.3z M328.7,468.1c0-2-1.7-3.7-3.7-3.7s-3.7,1.7-3.7,3.7c0,2,1.7,3.7,3.7,3.7S328.7,470.1,328.7,468.1 M330.6,452.3
		l9.9,19.7l1.1-0.5l-9.9-19.7L330.6,452.3z M296.6,462.5h19.7v-1.2h-19.7V462.5z M275.6,464.4c-2,0-3.7,1.7-3.7,3.7
		c0,2,1.7,3.7,3.7,3.7c2,0,3.7-1.7,3.7-3.7C279.3,466,277.7,464.4,275.6,464.4 M288,464.4c-2,0-3.7,1.7-3.7,3.7c0,2,1.7,3.7,3.7,3.7
		c2,0,3.7-1.7,3.7-3.7C291.7,466,290,464.4,288,464.4 M288,452c-2,0-3.7,1.7-3.7,3.7s1.7,3.7,3.7,3.7c2,0,3.7-1.7,3.7-3.7
		S290,452,288,452 M226.3,464.4c-2,0-3.7,1.7-3.7,3.7c0,2,1.7,3.7,3.7,3.7c2,0,3.7-1.7,3.7-3.7C230,466,228.3,464.4,226.3,464.4
		 M238.6,464.4c-2,0-3.7,1.7-3.7,3.7c0,2,1.7,3.7,3.7,3.7c2,0,3.7-1.7,3.7-3.7C242.3,466,240.7,464.4,238.6,464.4 M238.6,452
		c-2,0-3.7,1.7-3.7,3.7s1.7,3.7,3.7,3.7c2,0,3.7-1.7,3.7-3.7S240.7,452,238.6,452 M205.3,468.1c0-2-1.7-3.7-3.7-3.7
		s-3.7,1.7-3.7,3.7c0,2,1.7,3.7,3.7,3.7S205.3,470.1,205.3,468.1 M207.2,452.3l9.9,19.7l1.1-0.5l-9.9-19.7L207.2,452.3z
		 M152.3,464.4c-2,0-3.7,1.7-3.7,3.7c0,2,1.7,3.7,3.7,3.7c2,0,3.7-1.7,3.7-3.7C156,466,154.3,464.4,152.3,464.4 M164.6,464.4
		c-2,0-3.7,1.7-3.7,3.7c0,2,1.7,3.7,3.7,3.7c2,0,3.7-1.7,3.7-3.7C168.3,466,166.7,464.4,164.6,464.4 M164.6,452
		c-2,0-3.7,1.7-3.7,3.7s1.7,3.7,3.7,3.7c2,0,3.7-1.7,3.7-3.7S166.7,452,164.6,452 M139.9,464.4c-2,0-3.7,1.7-3.7,3.7
		c0,2,1.7,3.7,3.7,3.7s3.7-1.7,3.7-3.7C143.6,466,142,464.4,139.9,464.4 M127.6,464.4c-2,0-3.7,1.7-3.7,3.7c0,2,1.7,3.7,3.7,3.7
		c2,0,3.7-1.7,3.7-3.7C131.3,466,129.7,464.4,127.6,464.4 M133.2,471.8h1.2V452h-1.2V471.8z M127.6,452c-2,0-3.7,1.7-3.7,3.7
		s1.7,3.7,3.7,3.7c2,0,3.7-1.7,3.7-3.7S129.7,452,127.6,452 M106.6,468.1c0-2-1.7-3.7-3.7-3.7c-2,0-3.7,1.7-3.7,3.7
		c0,2,1.7,3.7,3.7,3.7C105,471.8,106.6,470.1,106.6,468.1 M108.6,452.3l9.9,19.7l1.1-0.5l-9.9-19.7L108.6,452.3z M90.6,452
		c-2,0-3.7,1.7-3.7,3.7s1.7,3.7,3.7,3.7c2,0,3.7-1.7,3.7-3.7S92.6,452,90.6,452 M74,452.3l9.9,19.7l1.1-0.5l-9.9-19.7L74,452.3z
		 M69.6,471.2H49.9v1.2h19.7V471.2z M63.5,461.9c0-2-1.7-3.7-3.7-3.7c-2,0-3.7,1.7-3.7,3.7c0,2,1.7,3.7,3.7,3.7
		C61.8,465.6,63.5,464,63.5,461.9 M69.6,451.4H49.9v1.2h19.7V451.4z M38.8,468.1c0-2-1.7-3.7-3.7-3.7s-3.7,1.7-3.7,3.7
		c0,2,1.7,3.7,3.7,3.7S38.8,470.1,38.8,468.1 M38.8,455.7c0-2-1.7-3.7-3.7-3.7s-3.7,1.7-3.7,3.7s1.7,3.7,3.7,3.7
		S38.8,457.8,38.8,455.7 M4.2,464.4c-2,0-3.7,1.7-3.7,3.7c0,2,1.7,3.7,3.7,3.7s3.7-1.7,3.7-3.7C7.9,466,6.3,464.4,4.2,464.4
		 M16.6,464.4c-2,0-3.7,1.7-3.7,3.7c0,2,1.7,3.7,3.7,3.7s3.7-1.7,3.7-3.7C20.3,466,18.6,464.4,16.6,464.4 M16.6,452
		c-2,0-3.7,1.7-3.7,3.7s1.7,3.7,3.7,3.7s3.7-1.7,3.7-3.7S18.6,452,16.6,452"/>
	<path class="st0" d="M633.4,439.7c-2,0-3.7,1.7-3.7,3.7c0,2,1.7,3.7,3.7,3.7c2,0,3.7-1.7,3.7-3.7
		C637.1,441.4,635.4,439.7,633.4,439.7 M621,439.7c-2,0-3.7,1.7-3.7,3.7c0,2,1.7,3.7,3.7,3.7c2,0,3.7-1.7,3.7-3.7
		C624.7,441.4,623.1,439.7,621,439.7 M626.6,447.1h1.2v-19.7h-1.2V447.1z M621,427.4c-2,0-3.7,1.7-3.7,3.7s1.7,3.7,3.7,3.7
		c2,0,3.7-1.7,3.7-3.7S623.1,427.4,621,427.4 M600.1,443.4c0-2-1.7-3.7-3.7-3.7c-2,0-3.7,1.7-3.7,3.7c0,2,1.7,3.7,3.7,3.7
		C598.4,447.1,600.1,445.5,600.1,443.4 M602,427.6l9.9,19.7l1.1-0.5l-9.9-19.7L602,427.6z M571.7,439.7c-2,0-3.7,1.7-3.7,3.7
		c0,2,1.7,3.7,3.7,3.7c2,0,3.7-1.7,3.7-3.7C575.4,441.4,573.7,439.7,571.7,439.7 M577.2,447.1h1.2v-19.7h-1.2V447.1z M584,427.4
		c-2,0-3.7,1.7-3.7,3.7s1.7,3.7,3.7,3.7c2,0,3.7-1.7,3.7-3.7S586.1,427.4,584,427.4 M543.3,447.7h19.7v-1.2h-19.7V447.7z M547,427.4
		c-2,0-3.7,1.7-3.7,3.7s1.7,3.7,3.7,3.7c2,0,3.7-1.7,3.7-3.7S549.1,427.4,547,427.4 M559.4,427.4c-2,0-3.7,1.7-3.7,3.7
		s1.7,3.7,3.7,3.7c2,0,3.7-1.7,3.7-3.7S561.4,427.4,559.4,427.4 M522.4,447.1c2,0,3.7-1.7,3.7-3.7c0-2-1.7-3.7-3.7-3.7
		c-2,0-3.7,1.7-3.7,3.7C518.7,445.5,520.3,447.1,522.4,447.1 M534.1,427.4h-1.2v19.7h1.2V427.4z M522.4,434.8c2,0,3.7-1.7,3.7-3.7
		s-1.7-3.7-3.7-3.7c-2,0-3.7,1.7-3.7,3.7S520.3,434.8,522.4,434.8 M503.8,440.9c2,0,3.7-1.7,3.7-3.7c0-2-1.7-3.7-3.7-3.7
		s-3.7,1.7-3.7,3.7C500.1,439.3,501.8,440.9,503.8,440.9 M485.3,447.1c2,0,3.7-1.7,3.7-3.7c0-2-1.7-3.7-3.7-3.7
		c-2,0-3.7,1.7-3.7,3.7C481.6,445.5,483.3,447.1,485.3,447.1 M472.4,427.4h-1.2v19.7h1.2V427.4z M477.3,427.4h-1.2v19.7h1.2V427.4z
		 M485.3,434.8c2,0,3.7-1.7,3.7-3.7s-1.7-3.7-3.7-3.7c-2,0-3.7,1.7-3.7,3.7S483.3,434.8,485.3,434.8 M464.4,446.5h-19.7v1.2h19.7
		V446.5z M464.4,436.6h-19.7v1.2h19.7V436.6z M464.4,426.7h-19.7v1.2h19.7V426.7z M423.7,439.7c-2,0-3.7,1.7-3.7,3.7
		c0,2,1.7,3.7,3.7,3.7c2,0,3.7-1.7,3.7-3.7C427.4,441.4,425.7,439.7,423.7,439.7 M429.2,447.1h1.2v-19.7h-1.2V447.1z M436,427.4
		c-2,0-3.7,1.7-3.7,3.7s1.7,3.7,3.7,3.7c2,0,3.7-1.7,3.7-3.7S438,427.4,436,427.4 M415,437.9v-1.2h-9.3v-9.3h-1.2v9.3h-9.3v1.2h9.3
		v9.3h1.2v-9.3H415z M411.3,427.4c-2,0-3.7,1.7-3.7,3.7s1.7,3.7,3.7,3.7c2,0,3.7-1.7,3.7-3.7S413.4,427.4,411.3,427.4 M399,427.4
		c-2,0-3.7,1.7-3.7,3.7s1.7,3.7,3.7,3.7c2,0,3.7-1.7,3.7-3.7S401,427.4,399,427.4 M349.6,447.1c2,0,3.7-1.7,3.7-3.7
		c0-2-1.7-3.7-3.7-3.7s-3.7,1.7-3.7,3.7C345.9,445.5,347.6,447.1,349.6,447.1 M361.4,427.4h-1.2v19.7h1.2V427.4z M349.6,434.8
		c2,0,3.7-1.7,3.7-3.7s-1.7-3.7-3.7-3.7s-3.7,1.7-3.7,3.7S347.6,434.8,349.6,434.8 M337.3,427.4c-2,0-3.7,1.7-3.7,3.7
		s1.7,3.7,3.7,3.7s3.7-1.7,3.7-3.7S339.4,427.4,337.3,427.4 M320.7,427.6l9.9,19.7l1.1-0.5l-9.9-19.7L320.7,427.6z M304,443.4
		c0-2-1.7-3.7-3.7-3.7c-2,0-3.7,1.7-3.7,3.7c0,2,1.7,3.7,3.7,3.7C302.4,447.1,304,445.5,304,443.4 M305.9,427.6l9.9,19.7l1.1-0.5
		l-9.9-19.7L305.9,427.6z M263.3,427.4c-2,0-3.7,1.7-3.7,3.7s1.7,3.7,3.7,3.7c2,0,3.7-1.7,3.7-3.7S265.3,427.4,263.3,427.4
		 M246.7,427.6l9.9,19.7l1.1-0.5l-9.9-19.7L246.7,427.6z M242.3,446.5h-19.7v1.2h19.7V446.5z M242.3,436.6h-19.7v1.2h19.7V436.6z
		 M242.3,426.7h-19.7v1.2h19.7V426.7z M211.5,443.4c0-2-1.7-3.7-3.7-3.7s-3.7,1.7-3.7,3.7c0,2,1.7,3.7,3.7,3.7
		S211.5,445.5,211.5,443.4 M211.5,431.1c0-2-1.7-3.7-3.7-3.7s-3.7,1.7-3.7,3.7s1.7,3.7,3.7,3.7S211.5,433.1,211.5,431.1
		 M173.2,437.9H193v-1.2h-19.7V437.9z M156,443.4c0-2-1.7-3.7-3.7-3.7c-2,0-3.7,1.7-3.7,3.7c0,2,1.7,3.7,3.7,3.7
		C154.3,447.1,156,445.5,156,443.4 M157.9,427.6l9.9,19.7l1.1-0.5l-9.9-19.7L157.9,427.6z M123.9,447.7h19.7v-1.2h-19.7V447.7z
		 M127.6,427.4c-2,0-3.7,1.7-3.7,3.7s1.7,3.7,3.7,3.7s3.7-1.7,3.7-3.7S129.7,427.4,127.6,427.4 M139.9,427.4c-2,0-3.7,1.7-3.7,3.7
		s1.7,3.7,3.7,3.7c2,0,3.7-1.7,3.7-3.7S142,427.4,139.9,427.4 M99.2,437.9H119v-1.2H99.2V437.9z M90.6,447.1c2,0,3.7-1.7,3.7-3.7
		c0-2-1.7-3.7-3.7-3.7c-2,0-3.7,1.7-3.7,3.7C86.9,445.5,88.5,447.1,90.6,447.1 M77.6,427.4h-1.2v19.7h1.2V427.4z M82.6,427.4h-1.2
		v19.7h1.2V427.4z M90.6,434.8c2,0,3.7-1.7,3.7-3.7s-1.7-3.7-3.7-3.7c-2,0-3.7,1.7-3.7,3.7S88.5,434.8,90.6,434.8 M65.9,427.4
		c-2,0-3.7,1.7-3.7,3.7s1.7,3.7,3.7,3.7c2,0,3.7-1.7,3.7-3.7S68,427.4,65.9,427.4 M49.3,427.6l9.9,19.7l1.1-0.5l-9.9-19.7
		L49.3,427.6z M25.2,447.7H45v-1.2H25.2V447.7z M28.9,427.4c-2,0-3.7,1.7-3.7,3.7s1.7,3.7,3.7,3.7c2,0,3.7-1.7,3.7-3.7
		S31,427.4,28.9,427.4 M41.3,427.4c-2,0-3.7,1.7-3.7,3.7s1.7,3.7,3.7,3.7s3.7-1.7,3.7-3.7S43.3,427.4,41.3,427.4 M20.3,437.9v-1.2
		H11v-9.3H9.8v9.3H0.5v1.2h9.3v9.3H11v-9.3H20.3z M16.6,427.4c-2,0-3.7,1.7-3.7,3.7s1.7,3.7,3.7,3.7s3.7-1.7,3.7-3.7
		S18.6,427.4,16.6,427.4 M4.2,427.4c-2,0-3.7,1.7-3.7,3.7s1.7,3.7,3.7,3.7s3.7-1.7,3.7-3.7S6.3,427.4,4.2,427.4"/>
	<path class="st0" d="M647.7,418.7c0-2-1.7-3.7-3.7-3.7c-2,0-3.7,1.7-3.7,3.7c0,2,1.7,3.7,3.7,3.7
		C646,422.4,647.7,420.8,647.7,418.7 M660,411.9h-19.7v1.2H660V411.9z M660,406.4c0-2-1.7-3.7-3.7-3.7c-2,0-3.7,1.7-3.7,3.7
		c0,2,1.7,3.7,3.7,3.7C658.3,410.1,660,408.4,660,406.4 M647.7,406.4c0-2-1.7-3.7-3.7-3.7c-2,0-3.7,1.7-3.7,3.7c0,2,1.7,3.7,3.7,3.7
		C646,410.1,647.7,408.4,647.7,406.4 M635.3,421.8h-19.7v1.2h19.7V421.8z M635.3,411.9h-19.7v1.2h19.7V411.9z M635.3,402.1h-19.7
		v1.2h19.7V402.1z M566.6,413.2h19.7v-1.2h-19.7V413.2z M551.8,416.3c2,0,3.7-1.7,3.7-3.7c0-2-1.7-3.7-3.7-3.7c-2,0-3.7,1.7-3.7,3.7
		C548.1,414.6,549.7,416.3,551.8,416.3 M521,415c-2,0-3.7,1.7-3.7,3.7c0,2,1.7,3.7,3.7,3.7c2,0,3.7-1.7,3.7-3.7
		C524.7,416.7,523,415,521,415 M533.3,415c-2,0-3.7,1.7-3.7,3.7c0,2,1.7,3.7,3.7,3.7c2,0,3.7-1.7,3.7-3.7
		C537,416.7,535.3,415,533.3,415 M533.3,402.7c-2,0-3.7,1.7-3.7,3.7c0,2,1.7,3.7,3.7,3.7c2,0,3.7-1.7,3.7-3.7
		C537,404.3,535.3,402.7,533.3,402.7 M484.3,415c-2,0-3.7,1.7-3.7,3.7c0,2,1.7,3.7,3.7,3.7c2,0,3.7-1.7,3.7-3.7
		C488,416.7,486.3,415,484.3,415 M472,415c-2,0-3.7,1.7-3.7,3.7c0,2,1.7,3.7,3.7,3.7c2,0,3.7-1.7,3.7-3.7
		C475.7,416.7,474,415,472,415 M477.5,422.4h1.2v-19.7h-1.2V422.4z M472,402.7c-2,0-3.7,1.7-3.7,3.7c0,2,1.7,3.7,3.7,3.7
		c2,0,3.7-1.7,3.7-3.7C475.7,404.3,474,402.7,472,402.7 M459.6,415c-2,0-3.7,1.7-3.7,3.7c0,2,1.7,3.7,3.7,3.7s3.7-1.7,3.7-3.7
		C463.3,416.7,461.7,415,459.6,415 M447.3,415c-2,0-3.7,1.7-3.7,3.7c0,2,1.7,3.7,3.7,3.7s3.7-1.7,3.7-3.7
		C451,416.7,449.3,415,447.3,415 M452.8,422.4h1.2v-19.7h-1.2V422.4z M447.3,402.7c-2,0-3.7,1.7-3.7,3.7c0,2,1.7,3.7,3.7,3.7
		s3.7-1.7,3.7-3.7C451,404.3,449.3,402.7,447.3,402.7 M426.3,418.7c0-2-1.7-3.7-3.7-3.7s-3.7,1.7-3.7,3.7c0,2,1.7,3.7,3.7,3.7
		S426.3,420.8,426.3,418.7 M428.2,403l9.9,19.7l1.1-0.5l-9.9-19.7L428.2,403z M393.7,403l9.9,19.7l1.1-0.5l-9.9-19.7L393.7,403z
		 M403.6,403l9.9,19.7l1.1-0.5l-9.9-19.7L403.6,403z M373.3,415c-2,0-3.7,1.7-3.7,3.7c0,2,1.7,3.7,3.7,3.7s3.7-1.7,3.7-3.7
		C377,416.7,375.3,415,373.3,415 M385.6,415c-2,0-3.7,1.7-3.7,3.7c0,2,1.7,3.7,3.7,3.7s3.7-1.7,3.7-3.7
		C389.3,416.7,387.7,415,385.6,415 M385.6,402.7c-2,0-3.7,1.7-3.7,3.7c0,2,1.7,3.7,3.7,3.7s3.7-1.7,3.7-3.7
		C389.3,404.3,387.7,402.7,385.6,402.7 M328,418.7c0-2-1.7-3.7-3.7-3.7c-2,0-3.7,1.7-3.7,3.7c0,2,1.7,3.7,3.7,3.7
		C326.3,422.4,328,420.8,328,418.7 M329.9,403l9.9,19.7l1.1-0.5l-9.9-19.7L329.9,403z M275.3,422.4c2,0,3.7-1.7,3.7-3.7
		c0-2-1.7-3.7-3.7-3.7s-3.7,1.7-3.7,3.7C271.6,420.8,273.2,422.4,275.3,422.4 M287,402.7h-1.2v19.7h1.2V402.7z M275.3,410.1
		c2,0,3.7-1.7,3.7-3.7c0-2-1.7-3.7-3.7-3.7s-3.7,1.7-3.7,3.7C271.6,408.4,273.2,410.1,275.3,410.1 M262.9,402.7
		c-2,0-3.7,1.7-3.7,3.7c0,2,1.7,3.7,3.7,3.7c2,0,3.7-1.7,3.7-3.7C266.6,404.3,265,402.7,262.9,402.7 M246.4,403l9.9,19.7l1.1-0.5
		l-9.9-19.7L246.4,403z M229.6,418.7c0-2-1.7-3.7-3.7-3.7c-2,0-3.7,1.7-3.7,3.7c0,2,1.7,3.7,3.7,3.7
		C228,422.4,229.6,420.8,229.6,418.7 M231.6,403l9.9,19.7l1.1-0.5l-9.9-19.7L231.6,403z M176.9,415c-2,0-3.7,1.7-3.7,3.7
		c0,2,1.7,3.7,3.7,3.7c2,0,3.7-1.7,3.7-3.7C180.6,416.7,179,415,176.9,415 M189.3,415c-2,0-3.7,1.7-3.7,3.7c0,2,1.7,3.7,3.7,3.7
		c2,0,3.7-1.7,3.7-3.7C193,416.7,191.3,415,189.3,415 M189.3,402.7c-2,0-3.7,1.7-3.7,3.7c0,2,1.7,3.7,3.7,3.7c2,0,3.7-1.7,3.7-3.7
		C193,404.3,191.3,402.7,189.3,402.7 M164.6,415c-2,0-3.7,1.7-3.7,3.7c0,2,1.7,3.7,3.7,3.7c2,0,3.7-1.7,3.7-3.7
		C168.3,416.7,166.7,415,164.6,415 M152.3,415c-2,0-3.7,1.7-3.7,3.7c0,2,1.7,3.7,3.7,3.7c2,0,3.7-1.7,3.7-3.7
		C156,416.7,154.3,415,152.3,415 M157.8,422.4h1.2v-19.7h-1.2V422.4z M152.3,402.7c-2,0-3.7,1.7-3.7,3.7c0,2,1.7,3.7,3.7,3.7
		c2,0,3.7-1.7,3.7-3.7C156,404.3,154.3,402.7,152.3,402.7 M131.3,418.7c0-2-1.7-3.7-3.7-3.7c-2,0-3.7,1.7-3.7,3.7
		c0,2,1.7,3.7,3.7,3.7C129.7,422.4,131.3,420.8,131.3,418.7 M133.2,403l9.9,19.7l1.1-0.5l-9.9-19.7L133.2,403z M102.9,415
		c-2,0-3.7,1.7-3.7,3.7c0,2,1.7,3.7,3.7,3.7s3.7-1.7,3.7-3.7C106.6,416.7,105,415,102.9,415 M108.5,422.4h1.2v-19.7h-1.2V422.4z
		 M115.3,402.7c-2,0-3.7,1.7-3.7,3.7c0,2,1.7,3.7,3.7,3.7c2,0,3.7-1.7,3.7-3.7C119,404.3,117.3,402.7,115.3,402.7 M84.4,416.3
		c2,0,3.7-1.7,3.7-3.7c0-2-1.7-3.7-3.7-3.7c-2,0-3.7,1.7-3.7,3.7C80.7,414.6,82.4,416.3,84.4,416.3 M49.3,403l9.9,19.7l1.1-0.5
		l-9.9-19.7L49.3,403z M59.2,403l9.9,19.7l1.1-0.5l-9.9-19.7L59.2,403z M25.2,423H45v-1.2H25.2V423z M28.9,402.7
		c-2,0-3.7,1.7-3.7,3.7c0,2,1.7,3.7,3.7,3.7c2,0,3.7-1.7,3.7-3.7C32.6,404.3,31,402.7,28.9,402.7 M41.3,402.7c-2,0-3.7,1.7-3.7,3.7
		c0,2,1.7,3.7,3.7,3.7c2,0,3.7-1.7,3.7-3.7C45,404.3,43.3,402.7,41.3,402.7 M16.6,402.7c-2,0-3.7,1.7-3.7,3.7c0,2,1.7,3.7,3.7,3.7
		c2,0,3.7-1.7,3.7-3.7C20.3,404.3,18.6,402.7,16.6,402.7 M0,403l9.9,19.7l1.1-0.5l-9.9-19.7L0,403z"/>
	<path class="st0" d="M584,397.8c2,0,3.7-1.7,3.7-3.7c0-2-1.7-3.7-3.7-3.7c-2,0-3.7,1.7-3.7,3.7C580.3,396.1,582,397.8,584,397.8
		 M571.1,378h-1.2v19.7h1.2V378z M576,378h-1.2v19.7h1.2V378z M584,385.4c2,0,3.7-1.7,3.7-3.7s-1.7-3.7-3.7-3.7
		c-2,0-3.7,1.7-3.7,3.7S582,385.4,584,385.4 M556.9,394.1c0-2-1.7-3.7-3.7-3.7c-2,0-3.7,1.7-3.7,3.7c0,2,1.7,3.7,3.7,3.7
		C555.2,397.8,556.9,396.1,556.9,394.1 M556.9,381.7c0-2-1.7-3.7-3.7-3.7c-2,0-3.7,1.7-3.7,3.7s1.7,3.7,3.7,3.7
		C555.2,385.4,556.9,383.8,556.9,381.7 M534.7,397.8c2,0,3.7-1.7,3.7-3.7c0-2-1.7-3.7-3.7-3.7c-2,0-3.7,1.7-3.7,3.7
		C531,396.1,532.6,397.8,534.7,397.8 M522.4,397.8c2,0,3.7-1.7,3.7-3.7c0-2-1.7-3.7-3.7-3.7c-2,0-3.7,1.7-3.7,3.7
		C518.7,396.1,520.3,397.8,522.4,397.8 M534.7,385.4c2,0,3.7-1.7,3.7-3.7s-1.7-3.7-3.7-3.7c-2,0-3.7,1.7-3.7,3.7
		S532.6,385.4,534.7,385.4 M529.1,378h-1.2v19.7h1.2V378z M501.4,394.1c0-2-1.7-3.7-3.7-3.7c-2,0-3.7,1.7-3.7,3.7
		c0,2,1.7,3.7,3.7,3.7C499.7,397.8,501.4,396.1,501.4,394.1 M503.3,378.3l9.9,19.7l1.1-0.5l-9.9-19.7L503.3,378.3z M473,390.4
		c-2,0-3.7,1.7-3.7,3.7c0,2,1.7,3.7,3.7,3.7c2,0,3.7-1.7,3.7-3.7C476.7,392,475.1,390.4,473,390.4 M478.6,397.8h1.2V378h-1.2V397.8z
		 M485.3,378c-2,0-3.7,1.7-3.7,3.7s1.7,3.7,3.7,3.7c2,0,3.7-1.7,3.7-3.7S487.4,378,485.3,378 M452,394.1c0-2-1.7-3.7-3.7-3.7
		c-2,0-3.7,1.7-3.7,3.7c0,2,1.7,3.7,3.7,3.7C450.4,397.8,452,396.1,452,394.1 M454,378.3l9.9,19.7l1.1-0.5l-9.9-19.7L454,378.3z
		 M405.2,391.6c2,0,3.7-1.7,3.7-3.7c0-2-1.7-3.7-3.7-3.7c-2,0-3.7,1.7-3.7,3.7C401.5,389.9,403.1,391.6,405.2,391.6 M390.4,394.1
		c0-2-1.7-3.7-3.7-3.7c-2,0-3.7,1.7-3.7,3.7c0,2,1.7,3.7,3.7,3.7C388.7,397.8,390.4,396.1,390.4,394.1 M378,394.1
		c0-2-1.7-3.7-3.7-3.7c-2,0-3.7,1.7-3.7,3.7c0,2,1.7,3.7,3.7,3.7C376.4,397.8,378,396.1,378,394.1 M390.4,381.7c0-2-1.7-3.7-3.7-3.7
		c-2,0-3.7,1.7-3.7,3.7s1.7,3.7,3.7,3.7C388.7,385.4,390.4,383.8,390.4,381.7 M378,381.7c0-2-1.7-3.7-3.7-3.7c-2,0-3.7,1.7-3.7,3.7
		s1.7,3.7,3.7,3.7C376.4,385.4,378,383.8,378,381.7 M345.9,388.5h19.7v-1.2h-19.7V388.5z M300.3,390.4c-2,0-3.7,1.7-3.7,3.7
		c0,2,1.7,3.7,3.7,3.7c2,0,3.7-1.7,3.7-3.7C304,392,302.4,390.4,300.3,390.4 M312.6,390.4c-2,0-3.7,1.7-3.7,3.7c0,2,1.7,3.7,3.7,3.7
		s3.7-1.7,3.7-3.7C316.3,392,314.7,390.4,312.6,390.4 M312.6,378c-2,0-3.7,1.7-3.7,3.7s1.7,3.7,3.7,3.7s3.7-1.7,3.7-3.7
		S314.7,378,312.6,378 M275.6,390.4c-2,0-3.7,1.7-3.7,3.7c0,2,1.7,3.7,3.7,3.7c2,0,3.7-1.7,3.7-3.7
		C279.3,392,277.7,390.4,275.6,390.4 M281.2,397.8h1.2V378h-1.2V397.8z M288,378c-2,0-3.7,1.7-3.7,3.7s1.7,3.7,3.7,3.7
		c2,0,3.7-1.7,3.7-3.7S290,378,288,378 M257.1,391.6c2,0,3.7-1.7,3.7-3.7c0-2-1.7-3.7-3.7-3.7c-2,0-3.7,1.7-3.7,3.7
		C253.4,389.9,255.1,391.6,257.1,391.6 M222.6,388.5h19.7v-1.2h-19.7V388.5z M197.9,388.5h19.7v-1.2h-19.7V388.5z M183.1,391.6
		c2,0,3.7-1.7,3.7-3.7c0-2-1.7-3.7-3.7-3.7s-3.7,1.7-3.7,3.7C179.4,389.9,181.1,391.6,183.1,391.6 M164.6,390.4
		c-2,0-3.7,1.7-3.7,3.7c0,2,1.7,3.7,3.7,3.7c2,0,3.7-1.7,3.7-3.7C168.3,392,166.7,390.4,164.6,390.4 M152.3,390.4
		c-2,0-3.7,1.7-3.7,3.7c0,2,1.7,3.7,3.7,3.7c2,0,3.7-1.7,3.7-3.7C156,392,154.3,390.4,152.3,390.4 M157.8,397.8h1.2V378h-1.2V397.8z
		 M152.3,378c-2,0-3.7,1.7-3.7,3.7s1.7,3.7,3.7,3.7c2,0,3.7-1.7,3.7-3.7S154.3,378,152.3,378 M115.3,378c-2,0-3.7,1.7-3.7,3.7
		s1.7,3.7,3.7,3.7c2,0,3.7-1.7,3.7-3.7S117.3,378,115.3,378 M98.7,378.3l9.9,19.7l1.1-0.5l-9.9-19.7L98.7,378.3z M88.1,394.1
		c0-2-1.7-3.7-3.7-3.7c-2,0-3.7,1.7-3.7,3.7c0,2,1.7,3.7,3.7,3.7C86.5,397.8,88.1,396.1,88.1,394.1 M88.1,381.7c0-2-1.7-3.7-3.7-3.7
		c-2,0-3.7,1.7-3.7,3.7s1.7,3.7,3.7,3.7C86.5,385.4,88.1,383.8,88.1,381.7 M49.9,388.5h19.7v-1.2H49.9V388.5z M32.6,394.1
		c0-2-1.7-3.7-3.7-3.7c-2,0-3.7,1.7-3.7,3.7c0,2,1.7,3.7,3.7,3.7C31,397.8,32.6,396.1,32.6,394.1 M34.5,378.3l9.9,19.7l1.1-0.5
		l-9.9-19.7L34.5,378.3z M16.6,390.4c-2,0-3.7,1.7-3.7,3.7c0,2,1.7,3.7,3.7,3.7s3.7-1.7,3.7-3.7C20.3,392,18.6,390.4,16.6,390.4
		 M4.2,390.4c-2,0-3.7,1.7-3.7,3.7c0,2,1.7,3.7,3.7,3.7s3.7-1.7,3.7-3.7C7.9,392,6.3,390.4,4.2,390.4 M9.8,397.8H11V378H9.8V397.8z
		 M4.2,378c-2,0-3.7,1.7-3.7,3.7s1.7,3.7,3.7,3.7s3.7-1.7,3.7-3.7S6.3,378,4.2,378"/>
	<path class="st0" d="M600.1,369.4c0-2-1.7-3.7-3.7-3.7c-2,0-3.7,1.7-3.7,3.7c0,2,1.7,3.7,3.7,3.7
		C598.4,373.1,600.1,371.4,600.1,369.4 M602,353.6l9.9,19.7l1.1-0.5l-9.9-19.7L602,353.6z M571.7,365.7c-2,0-3.7,1.7-3.7,3.7
		c0,2,1.7,3.7,3.7,3.7c2,0,3.7-1.7,3.7-3.7C575.4,367.3,573.7,365.7,571.7,365.7 M577.2,373.1h1.2v-19.7h-1.2V373.1z M584,353.4
		c-2,0-3.7,1.7-3.7,3.7c0,2,1.7,3.7,3.7,3.7c2,0,3.7-1.7,3.7-3.7C587.7,355,586.1,353.4,584,353.4 M543.3,363.8h19.7v-1.2h-19.7
		V363.8z M534.7,359.5c-2,0-3.7,1.7-3.7,3.7s1.7,3.7,3.7,3.7c2,0,3.7-1.7,3.7-3.7S536.7,359.5,534.7,359.5 M522.4,359.5
		c-2,0-3.7,1.7-3.7,3.7s1.7,3.7,3.7,3.7c2,0,3.7-1.7,3.7-3.7S524.4,359.5,522.4,359.5 M534,372.8l-4.8-9.6l4.8-9.6l-1.1-0.5
		l-4.4,8.8l-4.4-8.8l-1.1,0.5l4.8,9.6l-4.8,9.6l1.1,0.5l4.4-8.8l4.4,8.8L534,372.8z M503.8,366.9c2,0,3.7-1.7,3.7-3.7
		s-1.7-3.7-3.7-3.7s-3.7,1.7-3.7,3.7S501.8,366.9,503.8,366.9 M454.5,366.9c2,0,3.7-1.7,3.7-3.7s-1.7-3.7-3.7-3.7
		c-2,0-3.7,1.7-3.7,3.7S452.5,366.9,454.5,366.9 M419.4,353.6l9.9,19.7l1.1-0.5l-9.9-19.7L419.4,353.6z M429.3,353.6l9.9,19.7
		l1.1-0.5l-9.9-19.7L429.3,353.6z M415,372.5h-19.7v1.2H415V372.5z M415,362.6h-19.7v1.2H415V362.6z M415,352.7h-19.7v1.2H415V352.7
		z M374.3,365.7c-2,0-3.7,1.7-3.7,3.7c0,2,1.7,3.7,3.7,3.7c2,0,3.7-1.7,3.7-3.7C378,367.3,376.4,365.7,374.3,365.7 M386.7,365.7
		c-2,0-3.7,1.7-3.7,3.7c0,2,1.7,3.7,3.7,3.7c2,0,3.7-1.7,3.7-3.7C390.4,367.3,388.7,365.7,386.7,365.7 M386.7,353.4
		c-2,0-3.7,1.7-3.7,3.7c0,2,1.7,3.7,3.7,3.7c2,0,3.7-1.7,3.7-3.7C390.4,355,388.7,353.4,386.7,353.4 M321.3,363.8H341v-1.2h-19.7
		V363.8z M306.5,366.9c2,0,3.7-1.7,3.7-3.7s-1.7-3.7-3.7-3.7s-3.7,1.7-3.7,3.7S304.4,366.9,306.5,366.9 M288,373.1
		c2,0,3.7-1.7,3.7-3.7c0-2-1.7-3.7-3.7-3.7c-2,0-3.7,1.7-3.7,3.7C284.3,371.4,285.9,373.1,288,373.1 M275.6,373.1
		c2,0,3.7-1.7,3.7-3.7c0-2-1.7-3.7-3.7-3.7c-2,0-3.7,1.7-3.7,3.7C271.9,371.4,273.6,373.1,275.6,373.1 M288,360.8
		c2,0,3.7-1.7,3.7-3.7c0-2-1.7-3.7-3.7-3.7c-2,0-3.7,1.7-3.7,3.7C284.3,359.1,285.9,360.8,288,360.8 M282.4,353.4h-1.2v19.7h1.2
		V353.4z M254.7,369.4c0-2-1.7-3.7-3.7-3.7c-2,0-3.7,1.7-3.7,3.7c0,2,1.7,3.7,3.7,3.7C253,373.1,254.7,371.4,254.7,369.4
		 M256.6,353.6l9.9,19.7l1.1-0.5l-9.9-19.7L256.6,353.6z M242.3,369.4c0-2-1.7-3.7-3.7-3.7c-2,0-3.7,1.7-3.7,3.7
		c0,2,1.7,3.7,3.7,3.7C240.7,373.1,242.3,371.4,242.3,369.4 M230,369.4c0-2-1.7-3.7-3.7-3.7c-2,0-3.7,1.7-3.7,3.7
		c0,2,1.7,3.7,3.7,3.7C228.3,373.1,230,371.4,230,369.4 M242.3,357.1c0-2-1.7-3.7-3.7-3.7c-2,0-3.7,1.7-3.7,3.7c0,2,1.7,3.7,3.7,3.7
		C240.7,360.8,242.3,359.1,242.3,357.1 M230,357.1c0-2-1.7-3.7-3.7-3.7c-2,0-3.7,1.7-3.7,3.7c0,2,1.7,3.7,3.7,3.7
		C228.3,360.8,230,359.1,230,357.1 M217.7,363.8v-1.2h-9.3v-9.3h-1.2v9.3h-9.3v1.2h9.3v9.3h1.2v-9.3H217.7z M214,353.4
		c-2,0-3.7,1.7-3.7,3.7c0,2,1.7,3.7,3.7,3.7c2,0,3.7-1.7,3.7-3.7C217.7,355,216,353.4,214,353.4 M201.6,353.4c-2,0-3.7,1.7-3.7,3.7
		c0,2,1.7,3.7,3.7,3.7s3.7-1.7,3.7-3.7C205.3,355,203.7,353.4,201.6,353.4 M189.3,365.7c-2,0-3.7,1.7-3.7,3.7c0,2,1.7,3.7,3.7,3.7
		s3.7-1.7,3.7-3.7C193,367.3,191.3,365.7,189.3,365.7 M176.9,365.7c-2,0-3.7,1.7-3.7,3.7c0,2,1.7,3.7,3.7,3.7s3.7-1.7,3.7-3.7
		C180.6,367.3,179,365.7,176.9,365.7 M182.5,373.1h1.2v-19.7h-1.2V373.1z M176.9,353.4c-2,0-3.7,1.7-3.7,3.7c0,2,1.7,3.7,3.7,3.7
		s3.7-1.7,3.7-3.7C180.6,355,179,353.4,176.9,353.4 M156,369.4c0-2-1.7-3.7-3.7-3.7c-2,0-3.7,1.7-3.7,3.7c0,2,1.7,3.7,3.7,3.7
		C154.3,373.1,156,371.4,156,369.4 M157.9,353.6l9.9,19.7l1.1-0.5l-9.9-19.7L157.9,353.6z M115.3,353.4c-2,0-3.7,1.7-3.7,3.7
		c0,2,1.7,3.7,3.7,3.7c2,0,3.7-1.7,3.7-3.7C119,355,117.3,353.4,115.3,353.4 M98.7,353.6l9.9,19.7l1.1-0.5l-9.9-19.7L98.7,353.6z
		 M88.1,369.4c0-2-1.7-3.7-3.7-3.7c-2,0-3.7,1.7-3.7,3.7c0,2,1.7,3.7,3.7,3.7C86.5,373.1,88.1,371.4,88.1,369.4 M88.1,357.1
		c0-2-1.7-3.7-3.7-3.7c-2,0-3.7,1.7-3.7,3.7c0,2,1.7,3.7,3.7,3.7C86.5,360.8,88.1,359.1,88.1,357.1 M49.9,363.8h19.7v-1.2H49.9
		V363.8z M32.6,369.4c0-2-1.7-3.7-3.7-3.7c-2,0-3.7,1.7-3.7,3.7c0,2,1.7,3.7,3.7,3.7C31,373.1,32.6,371.4,32.6,369.4 M34.5,353.6
		l9.9,19.7l1.1-0.5l-9.9-19.7L34.5,353.6z M16.6,365.7c-2,0-3.7,1.7-3.7,3.7c0,2,1.7,3.7,3.7,3.7s3.7-1.7,3.7-3.7
		C20.3,367.3,18.6,365.7,16.6,365.7 M4.2,365.7c-2,0-3.7,1.7-3.7,3.7c0,2,1.7,3.7,3.7,3.7s3.7-1.7,3.7-3.7
		C7.9,367.3,6.3,365.7,4.2,365.7 M9.8,373.1H11v-19.7H9.8V373.1z M4.2,353.4c-2,0-3.7,1.7-3.7,3.7c0,2,1.7,3.7,3.7,3.7
		s3.7-1.7,3.7-3.7C7.9,355,6.3,353.4,4.2,353.4"/>
	<path class="st0" d="M608.7,348.4c2,0,3.7-1.7,3.7-3.7c0-2-1.7-3.7-3.7-3.7c-2,0-3.7,1.7-3.7,3.7
		C605,346.8,606.7,348.4,608.7,348.4 M595.8,328.7h-1.2v19.7h1.2V328.7z M600.7,328.7h-1.2v19.7h1.2V328.7z M608.7,336.1
		c2,0,3.7-1.7,3.7-3.7c0-2-1.7-3.7-3.7-3.7c-2,0-3.7,1.7-3.7,3.7C605,334.4,606.7,336.1,608.7,336.1 M581.6,344.7
		c0-2-1.7-3.7-3.7-3.7c-2,0-3.7,1.7-3.7,3.7c0,2,1.7,3.7,3.7,3.7C579.9,348.4,581.6,346.8,581.6,344.7 M581.6,332.4
		c0-2-1.7-3.7-3.7-3.7c-2,0-3.7,1.7-3.7,3.7c0,2,1.7,3.7,3.7,3.7C579.9,336.1,581.6,334.4,581.6,332.4 M547,341
		c-2,0-3.7,1.7-3.7,3.7c0,2,1.7,3.7,3.7,3.7c2,0,3.7-1.7,3.7-3.7C550.7,342.7,549.1,341,547,341 M559.4,341c-2,0-3.7,1.7-3.7,3.7
		c0,2,1.7,3.7,3.7,3.7c2,0,3.7-1.7,3.7-3.7C563.1,342.7,561.4,341,559.4,341 M559.4,328.7c-2,0-3.7,1.7-3.7,3.7c0,2,1.7,3.7,3.7,3.7
		c2,0,3.7-1.7,3.7-3.7C563.1,330.3,561.4,328.7,559.4,328.7 M526.1,344.7c0-2-1.7-3.7-3.7-3.7c-2,0-3.7,1.7-3.7,3.7
		c0,2,1.7,3.7,3.7,3.7C524.4,348.4,526.1,346.8,526.1,344.7 M528,329l9.9,19.7l1.1-0.5l-9.9-19.7L528,329z M510,348.4
		c2,0,3.7-1.7,3.7-3.7c0-2-1.7-3.7-3.7-3.7c-2,0-3.7,1.7-3.7,3.7C506.3,346.8,508,348.4,510,348.4 M497.7,348.4c2,0,3.7-1.7,3.7-3.7
		c0-2-1.7-3.7-3.7-3.7c-2,0-3.7,1.7-3.7,3.7C494,346.8,495.6,348.4,497.7,348.4 M510,336.1c2,0,3.7-1.7,3.7-3.7c0-2-1.7-3.7-3.7-3.7
		c-2,0-3.7,1.7-3.7,3.7C506.3,334.4,508,336.1,510,336.1 M504.5,328.7h-1.2v19.7h1.2V328.7z M464.4,347.8h-19.7v1.2h19.7V347.8z
		 M464.4,337.9h-19.7v1.2h19.7V337.9z M464.4,328.1h-19.7v1.2h19.7V328.1z M423.7,341c-2,0-3.7,1.7-3.7,3.7c0,2,1.7,3.7,3.7,3.7
		c2,0,3.7-1.7,3.7-3.7C427.4,342.7,425.7,341,423.7,341 M436,341c-2,0-3.7,1.7-3.7,3.7c0,2,1.7,3.7,3.7,3.7c2,0,3.7-1.7,3.7-3.7
		C439.7,342.7,438,341,436,341 M436,328.7c-2,0-3.7,1.7-3.7,3.7c0,2,1.7,3.7,3.7,3.7c2,0,3.7-1.7,3.7-3.7
		C439.7,330.3,438,328.7,436,328.7 M408.9,344.7c0-2-1.7-3.7-3.7-3.7c-2,0-3.7,1.7-3.7,3.7c0,2,1.7,3.7,3.7,3.7
		C407.2,348.4,408.9,346.8,408.9,344.7 M408.9,332.4c0-2-1.7-3.7-3.7-3.7c-2,0-3.7,1.7-3.7,3.7c0,2,1.7,3.7,3.7,3.7
		C407.2,336.1,408.9,334.4,408.9,332.4 M355.8,342.2c2,0,3.7-1.7,3.7-3.7c0-2-1.7-3.7-3.7-3.7s-3.7,1.7-3.7,3.7
		C352.1,340.6,353.8,342.2,355.8,342.2 M341,344.7c0-2-1.7-3.7-3.7-3.7s-3.7,1.7-3.7,3.7c0,2,1.7,3.7,3.7,3.7S341,346.8,341,344.7
		 M328.7,344.7c0-2-1.7-3.7-3.7-3.7s-3.7,1.7-3.7,3.7c0,2,1.7,3.7,3.7,3.7S328.7,346.8,328.7,344.7 M341,332.4c0-2-1.7-3.7-3.7-3.7
		s-3.7,1.7-3.7,3.7c0,2,1.7,3.7,3.7,3.7S341,334.4,341,332.4 M328.7,332.4c0-2-1.7-3.7-3.7-3.7s-3.7,1.7-3.7,3.7
		c0,2,1.7,3.7,3.7,3.7S328.7,334.4,328.7,332.4 M296.6,339.2h19.7v-1.2h-19.7V339.2z M251,341c-2,0-3.7,1.7-3.7,3.7
		c0,2,1.7,3.7,3.7,3.7c2,0,3.7-1.7,3.7-3.7C254.7,342.7,253,341,251,341 M263.3,341c-2,0-3.7,1.7-3.7,3.7c0,2,1.7,3.7,3.7,3.7
		c2,0,3.7-1.7,3.7-3.7C267,342.7,265.3,341,263.3,341 M263.3,328.7c-2,0-3.7,1.7-3.7,3.7c0,2,1.7,3.7,3.7,3.7c2,0,3.7-1.7,3.7-3.7
		C267,330.3,265.3,328.7,263.3,328.7 M232.5,342.2c2,0,3.7-1.7,3.7-3.7c0-2-1.7-3.7-3.7-3.7c-2,0-3.7,1.7-3.7,3.7
		C228.8,340.6,230.4,342.2,232.5,342.2 M201.6,348.4c2,0,3.7-1.7,3.7-3.7c0-2-1.7-3.7-3.7-3.7s-3.7,1.7-3.7,3.7
		C197.9,346.8,199.6,348.4,201.6,348.4 M213.3,328.7h-1.2v19.7h1.2V328.7z M201.6,336.1c2,0,3.7-1.7,3.7-3.7c0-2-1.7-3.7-3.7-3.7
		s-3.7,1.7-3.7,3.7C197.9,334.4,199.6,336.1,201.6,336.1 M193,347.8h-19.7v1.2H193V347.8z M193,337.9h-19.7v1.2H193V337.9z
		 M193,328.1h-19.7v1.2H193V328.1z M164.6,348.4c2,0,3.7-1.7,3.7-3.7c0-2-1.7-3.7-3.7-3.7c-2,0-3.7,1.7-3.7,3.7
		C160.9,346.8,162.6,348.4,164.6,348.4 M151.7,328.7h-1.2v19.7h1.2V328.7z M156.6,328.7h-1.2v19.7h1.2V328.7z M164.6,336.1
		c2,0,3.7-1.7,3.7-3.7c0-2-1.7-3.7-3.7-3.7c-2,0-3.7,1.7-3.7,3.7C160.9,334.4,162.6,336.1,164.6,336.1 M139.9,328.7
		c-2,0-3.7,1.7-3.7,3.7c0,2,1.7,3.7,3.7,3.7s3.7-1.7,3.7-3.7C143.6,330.3,142,328.7,139.9,328.7 M123.4,329l9.9,19.7l1.1-0.5
		l-9.9-19.7L123.4,329z M109.1,342.2c2,0,3.7-1.7,3.7-3.7c0-2-1.7-3.7-3.7-3.7c-2,0-3.7,1.7-3.7,3.7
		C105.4,340.6,107.1,342.2,109.1,342.2 M84.4,342.2c2,0,3.7-1.7,3.7-3.7c0-2-1.7-3.7-3.7-3.7c-2,0-3.7,1.7-3.7,3.7
		C80.7,340.6,82.4,342.2,84.4,342.2 M53.6,348.4c2,0,3.7-1.7,3.7-3.7c0-2-1.7-3.7-3.7-3.7s-3.7,1.7-3.7,3.7
		C49.9,346.8,51.5,348.4,53.6,348.4 M65.3,328.7h-1.2v19.7h1.2V328.7z M53.6,336.1c2,0,3.7-1.7,3.7-3.7c0-2-1.7-3.7-3.7-3.7
		s-3.7,1.7-3.7,3.7C49.9,334.4,51.5,336.1,53.6,336.1 M45,347.8H25.2v1.2H45V347.8z M45,337.9H25.2v1.2H45V337.9z M45,328.1H25.2
		v1.2H45V328.1z M16.6,348.4c2,0,3.7-1.7,3.7-3.7c0-2-1.7-3.7-3.7-3.7s-3.7,1.7-3.7,3.7C12.9,346.8,14.5,348.4,16.6,348.4
		 M3.6,328.7H2.4v19.7h1.2V328.7z M8.6,328.7H7.3v19.7h1.2V328.7z M16.6,336.1c2,0,3.7-1.7,3.7-3.7c0-2-1.7-3.7-3.7-3.7
		s-3.7,1.7-3.7,3.7C12.9,334.4,14.5,336.1,16.6,336.1"/>
	<path class="st0" d="M553.2,317.6c2,0,3.7-1.7,3.7-3.7c0-2-1.7-3.7-3.7-3.7c-2,0-3.7,1.7-3.7,3.7
		C549.5,315.9,551.1,317.6,553.2,317.6 M522.4,316.3c-2,0-3.7,1.7-3.7,3.7c0,2,1.7,3.7,3.7,3.7c2,0,3.7-1.7,3.7-3.7
		C526.1,318,524.4,316.3,522.4,316.3 M534.7,316.3c-2,0-3.7,1.7-3.7,3.7c0,2,1.7,3.7,3.7,3.7c2,0,3.7-1.7,3.7-3.7
		C538.4,318,536.7,316.3,534.7,316.3 M534.7,304c-2,0-3.7,1.7-3.7,3.7c0,2,1.7,3.7,3.7,3.7c2,0,3.7-1.7,3.7-3.7
		C538.4,305.7,536.7,304,534.7,304 M497.7,316.3c-2,0-3.7,1.7-3.7,3.7c0,2,1.7,3.7,3.7,3.7c2,0,3.7-1.7,3.7-3.7
		C501.4,318,499.7,316.3,497.7,316.3 M503.2,323.7h1.2V304h-1.2V323.7z M510,304c-2,0-3.7,1.7-3.7,3.7c0,2,1.7,3.7,3.7,3.7
		c2,0,3.7-1.7,3.7-3.7C513.7,305.7,512.1,304,510,304 M489,323.1h-19.7v1.2H489V323.1z M489,313.3h-19.7v1.2H489V313.3z M489,303.4
		h-19.7v1.2H489V303.4z M444.1,304.3L454,324l1.1-0.5l-9.9-19.7L444.1,304.3z M454,304.3l9.9,19.7l1.1-0.5l-9.9-19.7L454,304.3z
		 M411.3,316.3c-2,0-3.7,1.7-3.7,3.7c0,2,1.7,3.7,3.7,3.7s3.7-1.7,3.7-3.7C415,318,413.4,316.3,411.3,316.3 M399,316.3
		c-2,0-3.7,1.7-3.7,3.7c0,2,1.7,3.7,3.7,3.7c2,0,3.7-1.7,3.7-3.7C402.7,318,401,316.3,399,316.3 M404.5,323.7h1.2V304h-1.2V323.7z
		 M399,304c-2,0-3.7,1.7-3.7,3.7c0,2,1.7,3.7,3.7,3.7c2,0,3.7-1.7,3.7-3.7C402.7,305.7,401,304,399,304 M378,320
		c0-2-1.7-3.7-3.7-3.7c-2,0-3.7,1.7-3.7,3.7c0,2,1.7,3.7,3.7,3.7C376.4,323.7,378,322.1,378,320 M379.9,304.3l9.9,19.7l1.1-0.5
		l-9.9-19.7L379.9,304.3z M362,304c-2,0-3.7,1.7-3.7,3.7c0,2,1.7,3.7,3.7,3.7c2,0,3.7-1.7,3.7-3.7C365.7,305.7,364,304,362,304
		 M345.4,304.3l9.9,19.7l1.1-0.5l-9.9-19.7L345.4,304.3z M341,323.1h-19.7v1.2H341V323.1z M341,313.3h-19.7v1.2H341V313.3z
		 M341,303.4h-19.7v1.2H341V303.4z M310.2,320c0-2-1.7-3.7-3.7-3.7c-2,0-3.7,1.7-3.7,3.7c0,2,1.7,3.7,3.7,3.7
		C308.5,323.7,310.2,322.1,310.2,320 M310.2,307.7c0-2-1.7-3.7-3.7-3.7c-2,0-3.7,1.7-3.7,3.7c0,2,1.7,3.7,3.7,3.7
		C308.5,311.4,310.2,309.8,310.2,307.7 M271.9,314.5h19.7v-1.2h-19.7V314.5z M254.7,320c0-2-1.7-3.7-3.7-3.7c-2,0-3.7,1.7-3.7,3.7
		c0,2,1.7,3.7,3.7,3.7C253,323.7,254.7,322.1,254.7,320 M256.6,304.3l9.9,19.7l1.1-0.5l-9.9-19.7L256.6,304.3z M238.6,304
		c-2,0-3.7,1.7-3.7,3.7c0,2,1.7,3.7,3.7,3.7c2,0,3.7-1.7,3.7-3.7C242.3,305.7,240.7,304,238.6,304 M222,304.3l9.9,19.7l1.1-0.5
		l-9.9-19.7L222,304.3z M201.6,316.3c-2,0-3.7,1.7-3.7,3.7c0,2,1.7,3.7,3.7,3.7c2,0,3.7-1.7,3.7-3.7
		C205.3,318,203.7,316.3,201.6,316.3 M207.2,323.7h1.2V304h-1.2V323.7z M214,304c-2,0-3.7,1.7-3.7,3.7c0,2,1.7,3.7,3.7,3.7
		c2,0,3.7-1.7,3.7-3.7C217.7,305.7,216,304,214,304 M183.1,317.6c2,0,3.7-1.7,3.7-3.7c0-2-1.7-3.7-3.7-3.7c-2,0-3.7,1.7-3.7,3.7
		C179.4,315.9,181.1,317.6,183.1,317.6 M148.6,314.5h19.7v-1.2h-19.7V314.5z M139.9,304c-2,0-3.7,1.7-3.7,3.7c0,2,1.7,3.7,3.7,3.7
		c2,0,3.7-1.7,3.7-3.7C143.6,305.7,142,304,139.9,304 M123.4,304.3l9.9,19.7l1.1-0.5l-9.9-19.7L123.4,304.3z M112.8,320
		c0-2-1.7-3.7-3.7-3.7c-2,0-3.7,1.7-3.7,3.7c0,2,1.7,3.7,3.7,3.7C111.1,323.7,112.8,322.1,112.8,320 M112.8,307.7
		c0-2-1.7-3.7-3.7-3.7c-2,0-3.7,1.7-3.7,3.7c0,2,1.7,3.7,3.7,3.7C111.1,311.4,112.8,309.8,112.8,307.7 M59.8,317.6
		c2,0,3.7-1.7,3.7-3.7c0-2-1.7-3.7-3.7-3.7s-3.7,1.7-3.7,3.7C56.1,315.9,57.7,317.6,59.8,317.6 M45,320c0-2-1.7-3.7-3.7-3.7
		c-2,0-3.7,1.7-3.7,3.7c0,2,1.7,3.7,3.7,3.7C43.3,323.7,45,322.1,45,320 M32.6,320c0-2-1.7-3.7-3.7-3.7c-2,0-3.7,1.7-3.7,3.7
		c0,2,1.7,3.7,3.7,3.7C31,323.7,32.6,322.1,32.6,320 M45,307.7c0-2-1.7-3.7-3.7-3.7c-2,0-3.7,1.7-3.7,3.7c0,2,1.7,3.7,3.7,3.7
		C43.3,311.4,45,309.8,45,307.7 M32.6,307.7c0-2-1.7-3.7-3.7-3.7c-2,0-3.7,1.7-3.7,3.7c0,2,1.7,3.7,3.7,3.7
		C31,311.4,32.6,309.8,32.6,307.7 M0.5,314.5h19.7v-1.2H0.5V314.5z"/>
	<path class="st0" d="M612.4,295.4c0-2-1.7-3.7-3.7-3.7c-2,0-3.7,1.7-3.7,3.7c0,2,1.7,3.7,3.7,3.7
		C610.8,299.1,612.4,297.4,612.4,295.4 M600.1,295.4c0-2-1.7-3.7-3.7-3.7c-2,0-3.7,1.7-3.7,3.7c0,2,1.7,3.7,3.7,3.7
		C598.4,299.1,600.1,297.4,600.1,295.4 M612.4,283c0-2-1.7-3.7-3.7-3.7c-2,0-3.7,1.7-3.7,3.7c0,2,1.7,3.7,3.7,3.7
		C610.8,286.7,612.4,285.1,612.4,283 M600.1,283c0-2-1.7-3.7-3.7-3.7c-2,0-3.7,1.7-3.7,3.7c0,2,1.7,3.7,3.7,3.7
		C598.4,286.7,600.1,285.1,600.1,283 M587.7,289.8v-1.2h-9.3v-9.3h-1.2v9.3H568v1.2h9.3v9.3h1.2v-9.3H587.7z M584,279.3
		c-2,0-3.7,1.7-3.7,3.7c0,2,1.7,3.7,3.7,3.7c2,0,3.7-1.7,3.7-3.7C587.7,281,586.1,279.3,584,279.3 M571.7,279.3
		c-2,0-3.7,1.7-3.7,3.7c0,2,1.7,3.7,3.7,3.7c2,0,3.7-1.7,3.7-3.7C575.4,281,573.7,279.3,571.7,279.3 M550.7,295.4
		c0-2-1.7-3.7-3.7-3.7c-2,0-3.7,1.7-3.7,3.7c0,2,1.7,3.7,3.7,3.7C549.1,299.1,550.7,297.4,550.7,295.4 M552.6,279.6l9.9,19.7
		l1.1-0.5l-9.9-19.7L552.6,279.6z M522.4,291.7c-2,0-3.7,1.7-3.7,3.7c0,2,1.7,3.7,3.7,3.7c2,0,3.7-1.7,3.7-3.7
		C526.1,293.3,524.4,291.7,522.4,291.7 M527.9,299.1h1.2v-19.7h-1.2V299.1z M534.7,279.3c-2,0-3.7,1.7-3.7,3.7c0,2,1.7,3.7,3.7,3.7
		c2,0,3.7-1.7,3.7-3.7C538.4,281,536.7,279.3,534.7,279.3 M513.7,298.5H494v1.2h19.7V298.5z M507.5,289.2c0-2-1.7-3.7-3.7-3.7
		s-3.7,1.7-3.7,3.7s1.7,3.7,3.7,3.7S507.5,291.3,507.5,289.2 M513.7,278.7H494v1.2h19.7V278.7z M479.2,292.9c2,0,3.7-1.7,3.7-3.7
		s-1.7-3.7-3.7-3.7c-2,0-3.7,1.7-3.7,3.7S477.1,292.9,479.2,292.9 M460.7,291.7c-2,0-3.7,1.7-3.7,3.7c0,2,1.7,3.7,3.7,3.7
		c2,0,3.7-1.7,3.7-3.7C464.4,293.3,462.7,291.7,460.7,291.7 M448.3,291.7c-2,0-3.7,1.7-3.7,3.7c0,2,1.7,3.7,3.7,3.7
		c2,0,3.7-1.7,3.7-3.7C452,293.3,450.4,291.7,448.3,291.7 M453.9,299.1h1.2v-19.7h-1.2V299.1z M448.3,279.3c-2,0-3.7,1.7-3.7,3.7
		c0,2,1.7,3.7,3.7,3.7c2,0,3.7-1.7,3.7-3.7C452,281,450.4,279.3,448.3,279.3 M429.8,292.9c2,0,3.7-1.7,3.7-3.7s-1.7-3.7-3.7-3.7
		c-2,0-3.7,1.7-3.7,3.7S427.8,292.9,429.8,292.9 M395.3,289.8H415v-1.2h-19.7V289.8z M355.8,292.9c2,0,3.7-1.7,3.7-3.7
		s-1.7-3.7-3.7-3.7c-2,0-3.7,1.7-3.7,3.7S353.8,292.9,355.8,292.9 M341,295.4c0-2-1.7-3.7-3.7-3.7c-2,0-3.7,1.7-3.7,3.7
		c0,2,1.7,3.7,3.7,3.7C339.4,299.1,341,297.4,341,295.4 M328.7,295.4c0-2-1.7-3.7-3.7-3.7c-2,0-3.7,1.7-3.7,3.7c0,2,1.7,3.7,3.7,3.7
		C327,299.1,328.7,297.4,328.7,295.4 M341,283c0-2-1.7-3.7-3.7-3.7c-2,0-3.7,1.7-3.7,3.7c0,2,1.7,3.7,3.7,3.7
		C339.4,286.7,341,285.1,341,283 M328.7,283c0-2-1.7-3.7-3.7-3.7c-2,0-3.7,1.7-3.7,3.7c0,2,1.7,3.7,3.7,3.7
		C327,286.7,328.7,285.1,328.7,283 M296.6,289.8h19.7v-1.2h-19.7V289.8z M254.7,295.4c0-2-1.7-3.7-3.7-3.7c-2,0-3.7,1.7-3.7,3.7
		c0,2,1.7,3.7,3.7,3.7C253,299.1,254.7,297.4,254.7,295.4 M267,288.6h-19.7v1.2H267V288.6z M267,283c0-2-1.7-3.7-3.7-3.7
		c-2,0-3.7,1.7-3.7,3.7c0,2,1.7,3.7,3.7,3.7C265.3,286.7,267,285.1,267,283 M254.7,283c0-2-1.7-3.7-3.7-3.7c-2,0-3.7,1.7-3.7,3.7
		c0,2,1.7,3.7,3.7,3.7C253,286.7,254.7,285.1,254.7,283 M242.3,298.5h-19.7v1.2h19.7V298.5z M242.3,288.6h-19.7v1.2h19.7V288.6z
		 M242.3,278.7h-19.7v1.2h19.7V278.7z M176.9,291.7c-2,0-3.7,1.7-3.7,3.7c0,2,1.7,3.7,3.7,3.7s3.7-1.7,3.7-3.7
		C180.6,293.3,179,291.7,176.9,291.7 M182.5,299.1h1.2v-19.7h-1.2V299.1z M189.3,279.3c-2,0-3.7,1.7-3.7,3.7c0,2,1.7,3.7,3.7,3.7
		s3.7-1.7,3.7-3.7C193,281,191.3,279.3,189.3,279.3 M168.3,298.5h-19.7v1.2h19.7V298.5z M168.3,288.6h-19.7v1.2h19.7V288.6z
		 M168.3,278.7h-19.7v1.2h19.7V278.7z M123.9,289.8h19.7v-1.2h-19.7V289.8z M115.3,279.3c-2,0-3.7,1.7-3.7,3.7c0,2,1.7,3.7,3.7,3.7
		c2,0,3.7-1.7,3.7-3.7C119,281,117.3,279.3,115.3,279.3 M98.7,279.6l9.9,19.7l1.1-0.5l-9.9-19.7L98.7,279.6z M84.4,292.9
		c2,0,3.7-1.7,3.7-3.7s-1.7-3.7-3.7-3.7c-2,0-3.7,1.7-3.7,3.7S82.4,292.9,84.4,292.9 M63.5,295.4c0-2-1.7-3.7-3.7-3.7
		s-3.7,1.7-3.7,3.7c0,2,1.7,3.7,3.7,3.7S63.5,297.4,63.5,295.4 M49.9,289.8h19.7v-1.2H49.9V289.8z M69.6,283c0-2-1.7-3.7-3.7-3.7
		c-2,0-3.7,1.7-3.7,3.7c0,2,1.7,3.7,3.7,3.7C68,286.7,69.6,285.1,69.6,283 M57.3,283c0-2-1.7-3.7-3.7-3.7s-3.7,1.7-3.7,3.7
		c0,2,1.7,3.7,3.7,3.7S57.3,285.1,57.3,283 M41.3,279.3c-2,0-3.7,1.7-3.7,3.7c0,2,1.7,3.7,3.7,3.7s3.7-1.7,3.7-3.7
		C45,281,43.3,279.3,41.3,279.3 M24.7,279.6l9.9,19.7l1.1-0.5l-9.9-19.7L24.7,279.6z M14.1,295.4c0-2-1.7-3.7-3.7-3.7
		s-3.7,1.7-3.7,3.7c0,2,1.7,3.7,3.7,3.7S14.1,297.4,14.1,295.4 M14.1,283c0-2-1.7-3.7-3.7-3.7S6.7,281,6.7,283c0,2,1.7,3.7,3.7,3.7
		S14.1,285.1,14.1,283"/>
	<path class="st0" d="M559.4,254.7c-2,0-3.7,1.7-3.7,3.7c0,2,1.7,3.7,3.7,3.7c2,0,3.7-1.7,3.7-3.7
		C563.1,256.3,561.4,254.7,559.4,254.7 M542.8,254.9l9.9,19.7l1.1-0.5l-9.9-19.7L542.8,254.9z M526.1,270.7c0-2-1.7-3.7-3.7-3.7
		c-2,0-3.7,1.7-3.7,3.7c0,2,1.7,3.7,3.7,3.7C524.4,274.4,526.1,272.7,526.1,270.7 M528,254.9l9.9,19.7l1.1-0.5l-9.9-19.7L528,254.9z
		 M479.2,268.2c2,0,3.7-1.7,3.7-3.7c0-2-1.7-3.7-3.7-3.7c-2,0-3.7,1.7-3.7,3.7C475.5,266.6,477.1,268.2,479.2,268.2 M448.3,267
		c-2,0-3.7,1.7-3.7,3.7c0,2,1.7,3.7,3.7,3.7c2,0,3.7-1.7,3.7-3.7C452,268.7,450.4,267,448.3,267 M460.7,267c-2,0-3.7,1.7-3.7,3.7
		c0,2,1.7,3.7,3.7,3.7c2,0,3.7-1.7,3.7-3.7C464.4,268.7,462.7,267,460.7,267 M460.7,254.7c-2,0-3.7,1.7-3.7,3.7c0,2,1.7,3.7,3.7,3.7
		c2,0,3.7-1.7,3.7-3.7C464.4,256.3,462.7,254.7,460.7,254.7 M423.7,267c-2,0-3.7,1.7-3.7,3.7c0,2,1.7,3.7,3.7,3.7
		c2,0,3.7-1.7,3.7-3.7C427.4,268.7,425.7,267,423.7,267 M429.2,274.4h1.2v-19.7h-1.2V274.4z M436,254.7c-2,0-3.7,1.7-3.7,3.7
		c0,2,1.7,3.7,3.7,3.7c2,0,3.7-1.7,3.7-3.7C439.7,256.3,438,254.7,436,254.7 M415,273.8h-19.7v1.2H415V273.8z M415,263.9h-19.7v1.2
		H415V263.9z M415,254h-19.7v1.2H415V254z M370.1,254.9l9.9,19.7l1.1-0.5l-9.9-19.7L370.1,254.9z M379.9,254.9l9.9,19.7l1.1-0.5
		l-9.9-19.7L379.9,254.9z M337.3,274.4c2,0,3.7-1.7,3.7-3.7c0-2-1.7-3.7-3.7-3.7c-2,0-3.7,1.7-3.7,3.7
		C333.6,272.7,335.3,274.4,337.3,274.4 M325,274.4c2,0,3.7-1.7,3.7-3.7c0-2-1.7-3.7-3.7-3.7s-3.7,1.7-3.7,3.7
		C321.3,272.7,322.9,274.4,325,274.4 M337.3,262.1c2,0,3.7-1.7,3.7-3.7c0-2-1.7-3.7-3.7-3.7c-2,0-3.7,1.7-3.7,3.7
		C333.6,260.4,335.3,262.1,337.3,262.1 M331.8,254.7h-1.2v19.7h1.2V254.7z M279.3,270.7c0-2-1.7-3.7-3.7-3.7c-2,0-3.7,1.7-3.7,3.7
		c0,2,1.7,3.7,3.7,3.7C277.7,274.4,279.3,272.7,279.3,270.7 M291.7,263.9h-19.7v1.2h19.7V263.9z M291.7,258.4c0-2-1.7-3.7-3.7-3.7
		c-2,0-3.7,1.7-3.7,3.7c0,2,1.7,3.7,3.7,3.7C290,262.1,291.7,260.4,291.7,258.4 M279.3,258.4c0-2-1.7-3.7-3.7-3.7
		c-2,0-3.7,1.7-3.7,3.7c0,2,1.7,3.7,3.7,3.7C277.7,262.1,279.3,260.4,279.3,258.4 M238.6,267c-2,0-3.7,1.7-3.7,3.7
		c0,2,1.7,3.7,3.7,3.7c2,0,3.7-1.7,3.7-3.7C242.3,268.7,240.7,267,238.6,267 M226.3,267c-2,0-3.7,1.7-3.7,3.7c0,2,1.7,3.7,3.7,3.7
		c2,0,3.7-1.7,3.7-3.7C230,268.7,228.3,267,226.3,267 M231.8,274.4h1.2v-19.7h-1.2V274.4z M226.3,254.7c-2,0-3.7,1.7-3.7,3.7
		c0,2,1.7,3.7,3.7,3.7c2,0,3.7-1.7,3.7-3.7C230,256.3,228.3,254.7,226.3,254.7 M207.8,268.2c2,0,3.7-1.7,3.7-3.7
		c0-2-1.7-3.7-3.7-3.7c-2,0-3.7,1.7-3.7,3.7C204.1,266.6,205.7,268.2,207.8,268.2 M173.2,275H193v-1.2h-19.7V275z M176.9,254.7
		c-2,0-3.7,1.7-3.7,3.7c0,2,1.7,3.7,3.7,3.7s3.7-1.7,3.7-3.7C180.6,256.3,179,254.7,176.9,254.7 M189.3,254.7c-2,0-3.7,1.7-3.7,3.7
		c0,2,1.7,3.7,3.7,3.7s3.7-1.7,3.7-3.7C193,256.3,191.3,254.7,189.3,254.7 M148,254.9l9.9,19.7l1.1-0.5l-9.9-19.7L148,254.9z
		 M157.9,254.9l9.9,19.7l1.1-0.5l-9.9-19.7L157.9,254.9z M131.3,270.7c0-2-1.7-3.7-3.7-3.7c-2,0-3.7,1.7-3.7,3.7
		c0,2,1.7,3.7,3.7,3.7C129.7,274.4,131.3,272.7,131.3,270.7 M133.2,254.9l9.9,19.7l1.1-0.5l-9.9-19.7L133.2,254.9z M102.9,267
		c-2,0-3.7,1.7-3.7,3.7c0,2,1.7,3.7,3.7,3.7c2,0,3.7-1.7,3.7-3.7C106.6,268.7,105,267,102.9,267 M115.3,267c-2,0-3.7,1.7-3.7,3.7
		c0,2,1.7,3.7,3.7,3.7c2,0,3.7-1.7,3.7-3.7C119,268.7,117.3,267,115.3,267 M115.3,254.7c-2,0-3.7,1.7-3.7,3.7c0,2,1.7,3.7,3.7,3.7
		c2,0,3.7-1.7,3.7-3.7C119,256.3,117.3,254.7,115.3,254.7 M53.6,267c-2,0-3.7,1.7-3.7,3.7c0,2,1.7,3.7,3.7,3.7s3.7-1.7,3.7-3.7
		C57.3,268.7,55.6,267,53.6,267 M59.1,274.4h1.2v-19.7h-1.2V274.4z M65.9,254.7c-2,0-3.7,1.7-3.7,3.7c0,2,1.7,3.7,3.7,3.7
		c2,0,3.7-1.7,3.7-3.7C69.6,256.3,68,254.7,65.9,254.7 M45,273.8H25.2v1.2H45V273.8z M45,263.9H25.2v1.2H45V263.9z M45,254H25.2v1.2
		H45V254z M7.9,270.7c0-2-1.7-3.7-3.7-3.7s-3.7,1.7-3.7,3.7c0,2,1.7,3.7,3.7,3.7S7.9,272.7,7.9,270.7 M20.3,263.9H0.5v1.2h19.7
		V263.9z M20.3,258.4c0-2-1.7-3.7-3.7-3.7c-2,0-3.7,1.7-3.7,3.7c0,2,1.7,3.7,3.7,3.7C18.6,262.1,20.3,260.4,20.3,258.4 M7.9,258.4
		c0-2-1.7-3.7-3.7-3.7s-3.7,1.7-3.7,3.7c0,2,1.7,3.7,3.7,3.7S7.9,260.4,7.9,258.4"/>
	<path class="st0" d="M497.7,249.7c2,0,3.7-1.7,3.7-3.7s-1.7-3.7-3.7-3.7c-2,0-3.7,1.7-3.7,3.7S495.6,249.7,497.7,249.7 M509.4,230
		h-1.2v19.7h1.2V230z M497.7,237.4c2,0,3.7-1.7,3.7-3.7s-1.7-3.7-3.7-3.7c-2,0-3.7,1.7-3.7,3.7S495.6,237.4,497.7,237.4
		 M479.2,243.6c2,0,3.7-1.7,3.7-3.7s-1.7-3.7-3.7-3.7c-2,0-3.7,1.7-3.7,3.7S477.1,243.6,479.2,243.6 M444.1,230.3L454,250l1.1-0.5
		l-9.9-19.7L444.1,230.3z M454,230.3l9.9,19.7l1.1-0.5l-9.9-19.7L454,230.3z M427.4,246c0-2-1.7-3.7-3.7-3.7c-2,0-3.7,1.7-3.7,3.7
		s1.7,3.7,3.7,3.7C425.7,249.7,427.4,248.1,427.4,246 M429.3,230.3l9.9,19.7l1.1-0.5l-9.9-19.7L429.3,230.3z M411.3,230
		c-2,0-3.7,1.7-3.7,3.7s1.7,3.7,3.7,3.7c2,0,3.7-1.7,3.7-3.7S413.4,230,411.3,230 M394.7,230.3l9.9,19.7l1.1-0.5l-9.9-19.7
		L394.7,230.3z M349.6,242.3c-2,0-3.7,1.7-3.7,3.7s1.7,3.7,3.7,3.7s3.7-1.7,3.7-3.7S351.7,242.3,349.6,242.3 M362,242.3
		c-2,0-3.7,1.7-3.7,3.7s1.7,3.7,3.7,3.7s3.7-1.7,3.7-3.7S364,242.3,362,242.3 M362,230c-2,0-3.7,1.7-3.7,3.7s1.7,3.7,3.7,3.7
		s3.7-1.7,3.7-3.7S364,230,362,230 M334.8,246c0-2-1.7-3.7-3.7-3.7s-3.7,1.7-3.7,3.7s1.7,3.7,3.7,3.7S334.8,248.1,334.8,246
		 M334.8,233.7c0-2-1.7-3.7-3.7-3.7s-3.7,1.7-3.7,3.7s1.7,3.7,3.7,3.7S334.8,235.7,334.8,233.7 M271.9,240.5h19.7v-1.2h-19.7V240.5z
		 M260.8,246c0-2-1.7-3.7-3.7-3.7c-2,0-3.7,1.7-3.7,3.7s1.7,3.7,3.7,3.7C259.2,249.7,260.8,248.1,260.8,246 M260.8,233.7
		c0-2-1.7-3.7-3.7-3.7c-2,0-3.7,1.7-3.7,3.7s1.7,3.7,3.7,3.7C259.2,237.4,260.8,235.7,260.8,233.7 M197.9,240.5h19.7v-1.2h-19.7
		V240.5z M189.3,230c-2,0-3.7,1.7-3.7,3.7s1.7,3.7,3.7,3.7s3.7-1.7,3.7-3.7S191.3,230,189.3,230 M172.7,230.3l9.9,19.7l1.1-0.5
		l-9.9-19.7L172.7,230.3z M158.4,243.6c2,0,3.7-1.7,3.7-3.7s-1.7-3.7-3.7-3.7c-2,0-3.7,1.7-3.7,3.7S156.4,243.6,158.4,243.6
		 M123.4,230.3l9.9,19.7l1.1-0.5l-9.9-19.7L123.4,230.3z M133.2,230.3l9.9,19.7l1.1-0.5l-9.9-19.7L133.2,230.3z M119,240.5v-1.2
		h-9.3V230h-1.2v9.3h-9.3v1.2h9.3v9.3h1.2v-9.3H119z M115.3,230c-2,0-3.7,1.7-3.7,3.7s1.7,3.7,3.7,3.7c2,0,3.7-1.7,3.7-3.7
		S117.3,230,115.3,230 M102.9,230c-2,0-3.7,1.7-3.7,3.7s1.7,3.7,3.7,3.7c2,0,3.7-1.7,3.7-3.7S105,230,102.9,230 M88.1,246
		c0-2-1.7-3.7-3.7-3.7c-2,0-3.7,1.7-3.7,3.7s1.7,3.7,3.7,3.7C86.5,249.7,88.1,248.1,88.1,246 M88.1,233.7c0-2-1.7-3.7-3.7-3.7
		c-2,0-3.7,1.7-3.7,3.7s1.7,3.7,3.7,3.7C86.5,237.4,88.1,235.7,88.1,233.7 M49.9,250.3h19.7v-1.2H49.9V250.3z M53.6,230
		c-2,0-3.7,1.7-3.7,3.7s1.7,3.7,3.7,3.7s3.7-1.7,3.7-3.7S55.6,230,53.6,230 M65.9,230c-2,0-3.7,1.7-3.7,3.7s1.7,3.7,3.7,3.7
		c2,0,3.7-1.7,3.7-3.7S68,230,65.9,230 M44.3,249.7h1.2V230h-1.2V249.7z M39.4,249.7h1.2V230h-1.2V249.7z M34.5,249.7h1.2V230h-1.2
		V249.7z M28.9,230c-2,0-3.7,1.7-3.7,3.7s1.7,3.7,3.7,3.7s3.7-1.7,3.7-3.7S31,230,28.9,230 M10.4,243.6c2,0,3.7-1.7,3.7-3.7
		s-1.7-3.7-3.7-3.7s-3.7,1.7-3.7,3.7S8.4,243.6,10.4,243.6"/>
	<path class="st0" d="M584,217.7c-2,0-3.7,1.7-3.7,3.7s1.7,3.7,3.7,3.7c2,0,3.7-1.7,3.7-3.7S586.1,217.7,584,217.7 M571.7,217.7
		c-2,0-3.7,1.7-3.7,3.7s1.7,3.7,3.7,3.7c2,0,3.7-1.7,3.7-3.7S573.7,217.7,571.7,217.7 M577.2,225.1h1.2v-19.7h-1.2V225.1z
		 M571.7,205.3c-2,0-3.7,1.7-3.7,3.7s1.7,3.7,3.7,3.7c2,0,3.7-1.7,3.7-3.7S573.7,205.3,571.7,205.3 M550.7,221.4
		c0-2-1.7-3.7-3.7-3.7c-2,0-3.7,1.7-3.7,3.7s1.7,3.7,3.7,3.7C549.1,225.1,550.7,223.4,550.7,221.4 M552.6,205.6l9.9,19.7l1.1-0.5
		l-9.9-19.7L552.6,205.6z M532.2,221.4c0-2-1.7-3.7-3.7-3.7c-2,0-3.7,1.7-3.7,3.7s1.7,3.7,3.7,3.7
		C530.6,225.1,532.2,223.4,532.2,221.4 M532.2,209c0-2-1.7-3.7-3.7-3.7c-2,0-3.7,1.7-3.7,3.7s1.7,3.7,3.7,3.7
		C530.6,212.7,532.2,211.1,532.2,209 M510,225.1c2,0,3.7-1.7,3.7-3.7s-1.7-3.7-3.7-3.7c-2,0-3.7,1.7-3.7,3.7S508,225.1,510,225.1
		 M497.1,205.3h-1.2v19.7h1.2V205.3z M502,205.3h-1.2v19.7h1.2V205.3z M510,212.7c2,0,3.7-1.7,3.7-3.7s-1.7-3.7-3.7-3.7
		c-2,0-3.7,1.7-3.7,3.7S508,212.7,510,212.7 M479.2,218.9c2,0,3.7-1.7,3.7-3.7s-1.7-3.7-3.7-3.7c-2,0-3.7,1.7-3.7,3.7
		S477.1,218.9,479.2,218.9 M464.4,215.8v-1.2h-9.3v-9.3h-1.2v9.3h-9.3v1.2h9.3v9.3h1.2v-9.3H464.4z M460.7,205.3
		c-2,0-3.7,1.7-3.7,3.7s1.7,3.7,3.7,3.7s3.7-1.7,3.7-3.7S462.7,205.3,460.7,205.3 M448.3,205.3c-2,0-3.7,1.7-3.7,3.7
		s1.7,3.7,3.7,3.7s3.7-1.7,3.7-3.7S450.4,205.3,448.3,205.3 M423.7,217.7c-2,0-3.7,1.7-3.7,3.7s1.7,3.7,3.7,3.7s3.7-1.7,3.7-3.7
		S425.7,217.7,423.7,217.7 M436,217.7c-2,0-3.7,1.7-3.7,3.7s1.7,3.7,3.7,3.7s3.7-1.7,3.7-3.7S438,217.7,436,217.7 M436,205.3
		c-2,0-3.7,1.7-3.7,3.7s1.7,3.7,3.7,3.7s3.7-1.7,3.7-3.7S438,205.3,436,205.3 M370.6,215.8h19.7v-1.2h-19.7V215.8z M345.9,225.7
		h19.7v-1.2h-19.7V225.7z M349.6,205.3c-2,0-3.7,1.7-3.7,3.7s1.7,3.7,3.7,3.7c2,0,3.7-1.7,3.7-3.7S351.7,205.3,349.6,205.3
		 M362,205.3c-2,0-3.7,1.7-3.7,3.7s1.7,3.7,3.7,3.7c2,0,3.7-1.7,3.7-3.7S364,205.3,362,205.3 M341,224.4h-19.7v1.2H341V224.4z
		 M341,214.6h-19.7v1.2H341V214.6z M341,204.7h-19.7v1.2H341V204.7z M316.3,221.4c0-2-1.7-3.7-3.7-3.7c-2,0-3.7,1.7-3.7,3.7
		s1.7,3.7,3.7,3.7C314.7,225.1,316.3,223.4,316.3,221.4 M304,221.4c0-2-1.7-3.7-3.7-3.7s-3.7,1.7-3.7,3.7s1.7,3.7,3.7,3.7
		S304,223.4,304,221.4 M316.3,209c0-2-1.7-3.7-3.7-3.7c-2,0-3.7,1.7-3.7,3.7s1.7,3.7,3.7,3.7C314.7,212.7,316.3,211.1,316.3,209
		 M304,209c0-2-1.7-3.7-3.7-3.7s-3.7,1.7-3.7,3.7s1.7,3.7,3.7,3.7S304,211.1,304,209 M271.9,215.8h19.7v-1.2h-19.7V215.8z
		 M260.8,221.4c0-2-1.7-3.7-3.7-3.7s-3.7,1.7-3.7,3.7s1.7,3.7,3.7,3.7S260.8,223.4,260.8,221.4 M260.8,209c0-2-1.7-3.7-3.7-3.7
		s-3.7,1.7-3.7,3.7s1.7,3.7,3.7,3.7S260.8,211.1,260.8,209 M226.3,205.3c-2,0-3.7,1.7-3.7,3.7s1.7,3.7,3.7,3.7c2,0,3.7-1.7,3.7-3.7
		S228.3,205.3,226.3,205.3 M227,224.8l1.1,0.5l9.9-19.7l-1.1-0.5L227,224.8z M231.9,224.8l1.1,0.5l9.9-19.7l-1.1-0.5L231.9,224.8z
		 M176.9,217.7c-2,0-3.7,1.7-3.7,3.7s1.7,3.7,3.7,3.7c2,0,3.7-1.7,3.7-3.7S179,217.7,176.9,217.7 M182.5,225.1h1.2v-19.7h-1.2V225.1
		z M189.3,205.3c-2,0-3.7,1.7-3.7,3.7s1.7,3.7,3.7,3.7c2,0,3.7-1.7,3.7-3.7S191.3,205.3,189.3,205.3 M158.4,218.9
		c2,0,3.7-1.7,3.7-3.7s-1.7-3.7-3.7-3.7c-2,0-3.7,1.7-3.7,3.7S156.4,218.9,158.4,218.9 M137.5,221.4c0-2-1.7-3.7-3.7-3.7
		c-2,0-3.7,1.7-3.7,3.7s1.7,3.7,3.7,3.7C135.8,225.1,137.5,223.4,137.5,221.4 M123.9,215.8h19.7v-1.2h-19.7V215.8z M143.6,209
		c0-2-1.7-3.7-3.7-3.7c-2,0-3.7,1.7-3.7,3.7s1.7,3.7,3.7,3.7C142,212.7,143.6,211.1,143.6,209 M131.3,209c0-2-1.7-3.7-3.7-3.7
		c-2,0-3.7,1.7-3.7,3.7s1.7,3.7,3.7,3.7C129.7,212.7,131.3,211.1,131.3,209 M102.9,217.7c-2,0-3.7,1.7-3.7,3.7s1.7,3.7,3.7,3.7
		s3.7-1.7,3.7-3.7S105,217.7,102.9,217.7 M108.5,225.1h1.2v-19.7h-1.2V225.1z M115.3,205.3c-2,0-3.7,1.7-3.7,3.7s1.7,3.7,3.7,3.7
		c2,0,3.7-1.7,3.7-3.7S117.3,205.3,115.3,205.3 M84.4,218.9c2,0,3.7-1.7,3.7-3.7s-1.7-3.7-3.7-3.7c-2,0-3.7,1.7-3.7,3.7
		S82.4,218.9,84.4,218.9 M53.6,217.7c-2,0-3.7,1.7-3.7,3.7s1.7,3.7,3.7,3.7c2,0,3.7-1.7,3.7-3.7S55.6,217.7,53.6,217.7 M65.9,217.7
		c-2,0-3.7,1.7-3.7,3.7s1.7,3.7,3.7,3.7c2,0,3.7-1.7,3.7-3.7S68,217.7,65.9,217.7 M65.9,205.3c-2,0-3.7,1.7-3.7,3.7s1.7,3.7,3.7,3.7
		c2,0,3.7-1.7,3.7-3.7S68,205.3,65.9,205.3 M41.3,225.1c2,0,3.7-1.7,3.7-3.7s-1.7-3.7-3.7-3.7c-2,0-3.7,1.7-3.7,3.7
		S39.2,225.1,41.3,225.1 M28.9,225.1c2,0,3.7-1.7,3.7-3.7s-1.7-3.7-3.7-3.7c-2,0-3.7,1.7-3.7,3.7S26.9,225.1,28.9,225.1 M41.3,212.7
		c2,0,3.7-1.7,3.7-3.7s-1.7-3.7-3.7-3.7c-2,0-3.7,1.7-3.7,3.7S39.2,212.7,41.3,212.7 M35.7,205.3h-1.2v19.7h1.2V205.3z M20.3,224.4
		H0.5v1.2h19.7V224.4z M20.3,214.6H0.5v1.2h19.7V214.6z M20.3,204.7H0.5v1.2h19.7V204.7z"/>
	<path class="st0" d="M497.7,193c-2,0-3.7,1.7-3.7,3.7c0,2,1.7,3.7,3.7,3.7c2,0,3.7-1.7,3.7-3.7C501.4,194.6,499.7,193,497.7,193
		 M503.2,200.4h1.2v-19.7h-1.2V200.4z M510,180.6c-2,0-3.7,1.7-3.7,3.7c0,2,1.7,3.7,3.7,3.7c2,0,3.7-1.7,3.7-3.7
		C513.7,182.3,512.1,180.6,510,180.6 M489,199.8h-19.7v1.2H489V199.8z M489,189.9h-19.7v1.2H489V189.9z M489,180h-19.7v1.2H489V180z
		 M423.7,193c-2,0-3.7,1.7-3.7,3.7c0,2,1.7,3.7,3.7,3.7c2,0,3.7-1.7,3.7-3.7C427.4,194.6,425.7,193,423.7,193 M429.2,200.4h1.2
		v-19.7h-1.2V200.4z M436,180.6c-2,0-3.7,1.7-3.7,3.7c0,2,1.7,3.7,3.7,3.7c2,0,3.7-1.7,3.7-3.7C439.7,182.3,438,180.6,436,180.6
		 M405.2,194.2c2,0,3.7-1.7,3.7-3.7c0-2-1.7-3.7-3.7-3.7c-2,0-3.7,1.7-3.7,3.7C401.5,192.6,403.1,194.2,405.2,194.2 M386.7,180.6
		c-2,0-3.7,1.7-3.7,3.7c0,2,1.7,3.7,3.7,3.7c2,0,3.7-1.7,3.7-3.7C390.4,182.3,388.7,180.6,386.7,180.6 M370.1,180.9l9.9,19.7
		l1.1-0.5l-9.9-19.7L370.1,180.9z M355.8,194.2c2,0,3.7-1.7,3.7-3.7c0-2-1.7-3.7-3.7-3.7c-2,0-3.7,1.7-3.7,3.7
		C352.1,192.6,353.8,194.2,355.8,194.2 M321.3,191.1H341v-1.2h-19.7V191.1z M300.3,193c-2,0-3.7,1.7-3.7,3.7c0,2,1.7,3.7,3.7,3.7
		c2,0,3.7-1.7,3.7-3.7C304,194.6,302.4,193,300.3,193 M312.6,193c-2,0-3.7,1.7-3.7,3.7c0,2,1.7,3.7,3.7,3.7s3.7-1.7,3.7-3.7
		C316.3,194.6,314.7,193,312.6,193 M312.6,180.6c-2,0-3.7,1.7-3.7,3.7c0,2,1.7,3.7,3.7,3.7s3.7-1.7,3.7-3.7
		C316.3,182.3,314.7,180.6,312.6,180.6 M285.5,196.7c0-2-1.7-3.7-3.7-3.7c-2,0-3.7,1.7-3.7,3.7c0,2,1.7,3.7,3.7,3.7
		C283.8,200.4,285.5,198.7,285.5,196.7 M285.5,184.3c0-2-1.7-3.7-3.7-3.7c-2,0-3.7,1.7-3.7,3.7c0,2,1.7,3.7,3.7,3.7
		C283.8,188,285.5,186.4,285.5,184.3 M263.3,193c-2,0-3.7,1.7-3.7,3.7c0,2,1.7,3.7,3.7,3.7s3.7-1.7,3.7-3.7
		C267,194.6,265.3,193,263.3,193 M251,193c-2,0-3.7,1.7-3.7,3.7c0,2,1.7,3.7,3.7,3.7c2,0,3.7-1.7,3.7-3.7
		C254.7,194.6,253,193,251,193 M256.5,200.4h1.2v-19.7h-1.2V200.4z M251,180.6c-2,0-3.7,1.7-3.7,3.7c0,2,1.7,3.7,3.7,3.7
		c2,0,3.7-1.7,3.7-3.7C254.7,182.3,253,180.6,251,180.6 M201.6,200.4c2,0,3.7-1.7,3.7-3.7c0-2-1.7-3.7-3.7-3.7c-2,0-3.7,1.7-3.7,3.7
		C197.9,198.7,199.6,200.4,201.6,200.4 M213.3,180.6h-1.2v19.7h1.2V180.6z M201.6,188c2,0,3.7-1.7,3.7-3.7c0-2-1.7-3.7-3.7-3.7
		c-2,0-3.7,1.7-3.7,3.7C197.9,186.4,199.6,188,201.6,188 M183.1,194.2c2,0,3.7-1.7,3.7-3.7c0-2-1.7-3.7-3.7-3.7s-3.7,1.7-3.7,3.7
		C179.4,192.6,181.1,194.2,183.1,194.2 M164.6,193c-2,0-3.7,1.7-3.7,3.7c0,2,1.7,3.7,3.7,3.7c2,0,3.7-1.7,3.7-3.7
		C168.3,194.6,166.7,193,164.6,193 M152.3,193c-2,0-3.7,1.7-3.7,3.7c0,2,1.7,3.7,3.7,3.7c2,0,3.7-1.7,3.7-3.7
		C156,194.6,154.3,193,152.3,193 M157.8,200.4h1.2v-19.7h-1.2V200.4z M152.3,180.6c-2,0-3.7,1.7-3.7,3.7c0,2,1.7,3.7,3.7,3.7
		c2,0,3.7-1.7,3.7-3.7C156,182.3,154.3,180.6,152.3,180.6 M139.9,193c-2,0-3.7,1.7-3.7,3.7c0,2,1.7,3.7,3.7,3.7c2,0,3.7-1.7,3.7-3.7
		C143.6,194.6,142,193,139.9,193 M127.6,193c-2,0-3.7,1.7-3.7,3.7c0,2,1.7,3.7,3.7,3.7s3.7-1.7,3.7-3.7
		C131.3,194.6,129.7,193,127.6,193 M133.2,200.4h1.2v-19.7h-1.2V200.4z M127.6,180.6c-2,0-3.7,1.7-3.7,3.7c0,2,1.7,3.7,3.7,3.7
		s3.7-1.7,3.7-3.7C131.3,182.3,129.7,180.6,127.6,180.6 M112.8,196.7c0-2-1.7-3.7-3.7-3.7c-2,0-3.7,1.7-3.7,3.7c0,2,1.7,3.7,3.7,3.7
		C111.1,200.4,112.8,198.7,112.8,196.7 M112.8,184.3c0-2-1.7-3.7-3.7-3.7c-2,0-3.7,1.7-3.7,3.7c0,2,1.7,3.7,3.7,3.7
		C111.1,188,112.8,186.4,112.8,184.3 M73.9,200.4h1.2v-19.7h-1.2V200.4z M90.6,188c2,0,3.7-1.7,3.7-3.7c0-2-1.7-3.7-3.7-3.7
		c-2,0-3.7,1.7-3.7,3.7C86.9,186.4,88.5,188,90.6,188 M80.2,180.9l9.9,19.7l1.1-0.5l-9.9-19.7L80.2,180.9z M53.6,193
		c-2,0-3.7,1.7-3.7,3.7c0,2,1.7,3.7,3.7,3.7c2,0,3.7-1.7,3.7-3.7C57.3,194.6,55.6,193,53.6,193 M65.9,193c-2,0-3.7,1.7-3.7,3.7
		c0,2,1.7,3.7,3.7,3.7c2,0,3.7-1.7,3.7-3.7C69.6,194.6,68,193,65.9,193 M65.9,180.6c-2,0-3.7,1.7-3.7,3.7c0,2,1.7,3.7,3.7,3.7
		c2,0,3.7-1.7,3.7-3.7C69.6,182.3,68,180.6,65.9,180.6 M7.9,196.7c0-2-1.7-3.7-3.7-3.7s-3.7,1.7-3.7,3.7c0,2,1.7,3.7,3.7,3.7
		S7.9,198.7,7.9,196.7 M9.9,180.9l9.9,19.7l1.1-0.5L11,180.4L9.9,180.9z"/>
	<path class="st0" d="M528.5,156c-2,0-3.7,1.7-3.7,3.7s1.7,3.7,3.7,3.7c2,0,3.7-1.7,3.7-3.7S530.6,156,528.5,156 M538.4,171.4v-1.2
		H532l1.8-3.7h4.6v-1.2h-3.9l4.5-9l-1.1-0.5l-4.8,9.5h-14.4v1.2h13.8l-1.8,3.7h-12v1.2H530l-2,4l1.1,0.5l2.3-4.6H538.4z M510,175.7
		c2,0,3.7-1.7,3.7-3.7s-1.7-3.7-3.7-3.7s-3.7,1.7-3.7,3.7S508,175.7,510,175.7 M497.7,175.7c2,0,3.7-1.7,3.7-3.7s-1.7-3.7-3.7-3.7
		c-2,0-3.7,1.7-3.7,3.7S495.6,175.7,497.7,175.7 M510,163.4c2,0,3.7-1.7,3.7-3.7s-1.7-3.7-3.7-3.7s-3.7,1.7-3.7,3.7
		S508,163.4,510,163.4 M504.5,156h-1.2v19.7h1.2V156z M448.3,175.7c2,0,3.7-1.7,3.7-3.7s-1.7-3.7-3.7-3.7c-2,0-3.7,1.7-3.7,3.7
		S446.3,175.7,448.3,175.7 M460.1,156h-1.2v19.7h1.2V156z M448.3,163.4c2,0,3.7-1.7,3.7-3.7s-1.7-3.7-3.7-3.7c-2,0-3.7,1.7-3.7,3.7
		S446.3,163.4,448.3,163.4 M439.7,175.1H420v1.2h19.7V175.1z M439.7,165.2H420v1.2h19.7V165.2z M439.7,155.4H420v1.2h19.7V155.4z
		 M415,175.1h-19.7v1.2H415V175.1z M415,165.2h-19.7v1.2H415V165.2z M415,155.4h-19.7v1.2H415V155.4z M370.6,166.5h19.7v-1.2h-19.7
		V166.5z M349.6,168.3c-2,0-3.7,1.7-3.7,3.7s1.7,3.7,3.7,3.7s3.7-1.7,3.7-3.7S351.7,168.3,349.6,168.3 M362,168.3
		c-2,0-3.7,1.7-3.7,3.7s1.7,3.7,3.7,3.7s3.7-1.7,3.7-3.7S364,168.3,362,168.3 M362,156c-2,0-3.7,1.7-3.7,3.7s1.7,3.7,3.7,3.7
		s3.7-1.7,3.7-3.7S364,156,362,156 M325,168.3c-2,0-3.7,1.7-3.7,3.7s1.7,3.7,3.7,3.7s3.7-1.7,3.7-3.7S327,168.3,325,168.3
		 M330.5,175.7h1.2V156h-1.2V175.7z M337.3,156c-2,0-3.7,1.7-3.7,3.7s1.7,3.7,3.7,3.7s3.7-1.7,3.7-3.7S339.4,156,337.3,156
		 M306.5,169.5c2,0,3.7-1.7,3.7-3.7s-1.7-3.7-3.7-3.7s-3.7,1.7-3.7,3.7S304.4,169.5,306.5,169.5 M275.6,175.7c2,0,3.7-1.7,3.7-3.7
		s-1.7-3.7-3.7-3.7c-2,0-3.7,1.7-3.7,3.7S273.6,175.7,275.6,175.7 M287.4,156h-1.2v19.7h1.2V156z M275.6,163.4c2,0,3.7-1.7,3.7-3.7
		s-1.7-3.7-3.7-3.7c-2,0-3.7,1.7-3.7,3.7S273.6,163.4,275.6,163.4 M263.3,156c-2,0-3.7,1.7-3.7,3.7s1.7,3.7,3.7,3.7
		c2,0,3.7-1.7,3.7-3.7S265.3,156,263.3,156 M246.7,156.2l9.9,19.7l1.1-0.5l-9.9-19.7L246.7,156.2z M222.6,176.3h19.7v-1.2h-19.7
		V176.3z M226.3,156c-2,0-3.7,1.7-3.7,3.7s1.7,3.7,3.7,3.7c2,0,3.7-1.7,3.7-3.7S228.3,156,226.3,156 M238.6,156
		c-2,0-3.7,1.7-3.7,3.7s1.7,3.7,3.7,3.7c2,0,3.7-1.7,3.7-3.7S240.7,156,238.6,156 M183.1,156c-2,0-3.7,1.7-3.7,3.7s1.7,3.7,3.7,3.7
		s3.7-1.7,3.7-3.7S185.2,156,183.1,156 M193,171.4v-1.2h-6.4l1.9-3.7h4.6v-1.2H189l4.5-9l-1.1-0.5l-4.8,9.5h-14.4v1.2h13.8l-1.8,3.7
		h-12v1.2h11.3l-2,4l1.1,0.5l2.3-4.6H193z M164.6,168.3c-2,0-3.7,1.7-3.7,3.7s1.7,3.7,3.7,3.7c2,0,3.7-1.7,3.7-3.7
		S166.7,168.3,164.6,168.3 M152.3,168.3c-2,0-3.7,1.7-3.7,3.7s1.7,3.7,3.7,3.7c2,0,3.7-1.7,3.7-3.7S154.3,168.3,152.3,168.3
		 M157.8,175.7h1.2V156h-1.2V175.7z M152.3,156c-2,0-3.7,1.7-3.7,3.7s1.7,3.7,3.7,3.7c2,0,3.7-1.7,3.7-3.7S154.3,156,152.3,156
		 M123.9,166.5h19.7v-1.2h-19.7V166.5z M115.3,175.7c2,0,3.7-1.7,3.7-3.7s-1.7-3.7-3.7-3.7c-2,0-3.7,1.7-3.7,3.7
		S113.2,175.7,115.3,175.7 M102.3,156h-1.2v19.7h1.2V156z M107.2,156H106v19.7h1.2V156z M115.3,163.4c2,0,3.7-1.7,3.7-3.7
		s-1.7-3.7-3.7-3.7c-2,0-3.7,1.7-3.7,3.7S113.2,163.4,115.3,163.4 M84.4,169.5c2,0,3.7-1.7,3.7-3.7s-1.7-3.7-3.7-3.7
		c-2,0-3.7,1.7-3.7,3.7S82.4,169.5,84.4,169.5 M53.6,168.3c-2,0-3.7,1.7-3.7,3.7s1.7,3.7,3.7,3.7c2,0,3.7-1.7,3.7-3.7
		S55.6,168.3,53.6,168.3 M59.1,175.7h1.2V156h-1.2V175.7z M65.9,156c-2,0-3.7,1.7-3.7,3.7s1.7,3.7,3.7,3.7c2,0,3.7-1.7,3.7-3.7
		S68,156,65.9,156 M38.8,172c0-2-1.7-3.7-3.7-3.7s-3.7,1.7-3.7,3.7s1.7,3.7,3.7,3.7S38.8,174.1,38.8,172 M38.8,159.7
		c0-2-1.7-3.7-3.7-3.7s-3.7,1.7-3.7,3.7s1.7,3.7,3.7,3.7S38.8,161.7,38.8,159.7 M4.2,175.7c2,0,3.7-1.7,3.7-3.7s-1.7-3.7-3.7-3.7
		S0.5,170,0.5,172S2.2,175.7,4.2,175.7 M16,156h-1.2v19.7H16V156z M4.2,163.4c2,0,3.7-1.7,3.7-3.7S6.3,156,4.2,156s-3.7,1.7-3.7,3.7
		S2.2,163.4,4.2,163.4"/>
	<path class="st0" d="M503.8,144.9c2,0,3.7-1.7,3.7-3.7c0-2-1.7-3.7-3.7-3.7c-2,0-3.7,1.7-3.7,3.7
		C500.1,143.2,501.8,144.9,503.8,144.9 M485.3,151c2,0,3.7-1.7,3.7-3.7c0-2-1.7-3.7-3.7-3.7c-2,0-3.7,1.7-3.7,3.7
		C481.6,149.4,483.3,151,485.3,151 M473,151c2,0,3.7-1.7,3.7-3.7c0-2-1.7-3.7-3.7-3.7c-2,0-3.7,1.7-3.7,3.7
		C469.3,149.4,471,151,473,151 M485.3,138.7c2,0,3.7-1.7,3.7-3.7c0-2-1.7-3.7-3.7-3.7c-2,0-3.7,1.7-3.7,3.7
		C481.6,137.1,483.3,138.7,485.3,138.7 M479.8,131.3h-1.2V151h1.2V131.3z M436,131.3c-2,0-3.7,1.7-3.7,3.7c0,2,1.7,3.7,3.7,3.7
		s3.7-1.7,3.7-3.7C439.7,133,438,131.3,436,131.3 M419.4,131.6l9.9,19.7l1.1-0.5l-9.9-19.7L419.4,131.6z M402.7,147.3
		c0-2-1.7-3.7-3.7-3.7c-2,0-3.7,1.7-3.7,3.7c0,2,1.7,3.7,3.7,3.7C401,151,402.7,149.4,402.7,147.3 M404.6,131.6l9.9,19.7l1.1-0.5
		l-9.9-19.7L404.6,131.6z M386.7,151c2,0,3.7-1.7,3.7-3.7c0-2-1.7-3.7-3.7-3.7c-2,0-3.7,1.7-3.7,3.7C383,149.4,384.6,151,386.7,151
		 M373.7,131.3h-1.2V151h1.2V131.3z M378.6,131.3h-1.2V151h1.2V131.3z M386.7,138.7c2,0,3.7-1.7,3.7-3.7c0-2-1.7-3.7-3.7-3.7
		c-2,0-3.7,1.7-3.7,3.7C383,137.1,384.6,138.7,386.7,138.7 M321.3,141.8H341v-1.2h-19.7V141.8z M304,147.3c0-2-1.7-3.7-3.7-3.7
		s-3.7,1.7-3.7,3.7c0,2,1.7,3.7,3.7,3.7S304,149.4,304,147.3 M305.9,131.6l9.9,19.7l1.1-0.5L307,131L305.9,131.6z M291.7,147.3
		c0-2-1.7-3.7-3.7-3.7s-3.7,1.7-3.7,3.7c0,2,1.7,3.7,3.7,3.7S291.7,149.4,291.7,147.3 M279.3,147.3c0-2-1.7-3.7-3.7-3.7
		s-3.7,1.7-3.7,3.7c0,2,1.7,3.7,3.7,3.7S279.3,149.4,279.3,147.3 M291.7,135c0-2-1.7-3.7-3.7-3.7s-3.7,1.7-3.7,3.7
		c0,2,1.7,3.7,3.7,3.7S291.7,137.1,291.7,135 M279.3,135c0-2-1.7-3.7-3.7-3.7s-3.7,1.7-3.7,3.7c0,2,1.7,3.7,3.7,3.7
		S279.3,137.1,279.3,135 M247.3,141.8H267v-1.2h-19.7V141.8z M201.6,143.6c-2,0-3.7,1.7-3.7,3.7c0,2,1.7,3.7,3.7,3.7
		c2,0,3.7-1.7,3.7-3.7C205.3,145.3,203.7,143.6,201.6,143.6 M214,143.6c-2,0-3.7,1.7-3.7,3.7c0,2,1.7,3.7,3.7,3.7
		c2,0,3.7-1.7,3.7-3.7C217.7,145.3,216,143.6,214,143.6 M214,131.3c-2,0-3.7,1.7-3.7,3.7c0,2,1.7,3.7,3.7,3.7c2,0,3.7-1.7,3.7-3.7
		C217.7,133,216,131.3,214,131.3 M172.6,151h1.2v-19.7h-1.2V151z M189.3,138.7c2,0,3.7-1.7,3.7-3.7c0-2-1.7-3.7-3.7-3.7
		c-2,0-3.7,1.7-3.7,3.7C185.6,137.1,187.2,138.7,189.3,138.7 M178.9,131.6l9.9,19.7l1.1-0.5L180,131L178.9,131.6z M164.6,151
		c2,0,3.7-1.7,3.7-3.7c0-2-1.7-3.7-3.7-3.7c-2,0-3.7,1.7-3.7,3.7C160.9,149.4,162.6,151,164.6,151 M151.7,131.3h-1.2V151h1.2V131.3z
		 M156.6,131.3h-1.2V151h1.2V131.3z M164.6,138.7c2,0,3.7-1.7,3.7-3.7c0-2-1.7-3.7-3.7-3.7c-2,0-3.7,1.7-3.7,3.7
		C160.9,137.1,162.6,138.7,164.6,138.7 M137.5,147.3c0-2-1.7-3.7-3.7-3.7c-2,0-3.7,1.7-3.7,3.7c0,2,1.7,3.7,3.7,3.7
		C135.8,151,137.5,149.4,137.5,147.3 M137.5,135c0-2-1.7-3.7-3.7-3.7c-2,0-3.7,1.7-3.7,3.7c0,2,1.7,3.7,3.7,3.7
		C135.8,138.7,137.5,137.1,137.5,135 M115.3,143.6c-2,0-3.7,1.7-3.7,3.7c0,2,1.7,3.7,3.7,3.7c2,0,3.7-1.7,3.7-3.7
		C119,145.3,117.3,143.6,115.3,143.6 M102.9,143.6c-2,0-3.7,1.7-3.7,3.7c0,2,1.7,3.7,3.7,3.7s3.7-1.7,3.7-3.7
		C106.6,145.3,105,143.6,102.9,143.6 M108.5,151h1.2v-19.7h-1.2V151z M102.9,131.3c-2,0-3.7,1.7-3.7,3.7c0,2,1.7,3.7,3.7,3.7
		s3.7-1.7,3.7-3.7C106.6,133,105,131.3,102.9,131.3 M90.6,151c2,0,3.7-1.7,3.7-3.7c0-2-1.7-3.7-3.7-3.7c-2,0-3.7,1.7-3.7,3.7
		C86.9,149.4,88.5,151,90.6,151 M77.6,131.3h-1.2V151h1.2V131.3z M82.6,131.3h-1.2V151h1.2V131.3z M90.6,138.7c2,0,3.7-1.7,3.7-3.7
		c0-2-1.7-3.7-3.7-3.7c-2,0-3.7,1.7-3.7,3.7C86.9,137.1,88.5,138.7,90.6,138.7 M28.9,143.6c-2,0-3.7,1.7-3.7,3.7
		c0,2,1.7,3.7,3.7,3.7c2,0,3.7-1.7,3.7-3.7C32.6,145.3,31,143.6,28.9,143.6 M34.5,151h1.2v-19.7h-1.2V151z M41.3,131.3
		c-2,0-3.7,1.7-3.7,3.7c0,2,1.7,3.7,3.7,3.7c2,0,3.7-1.7,3.7-3.7C45,133,43.3,131.3,41.3,131.3 M20.3,150.4H0.5v1.2h19.7V150.4z
		 M20.3,140.6H0.5v1.2h19.7V140.6z M20.3,130.7H0.5v1.2h19.7V130.7z"/>
	<path class="st0" d="M522.4,119c-2,0-3.7,1.7-3.7,3.7c0,2,1.7,3.7,3.7,3.7c2,0,3.7-1.7,3.7-3.7C526.1,120.6,524.4,119,522.4,119
		 M534.7,119c-2,0-3.7,1.7-3.7,3.7c0,2,1.7,3.7,3.7,3.7c2,0,3.7-1.7,3.7-3.7C538.4,120.6,536.7,119,534.7,119 M534.7,106.6
		c-2,0-3.7,1.7-3.7,3.7c0,2,1.7,3.7,3.7,3.7c2,0,3.7-1.7,3.7-3.7C538.4,108.3,536.7,106.6,534.7,106.6 M494,117.1h19.7v-1.2H494
		V117.1z M489,122.7c0-2-1.7-3.7-3.7-3.7c-2,0-3.7,1.7-3.7,3.7c0,2,1.7,3.7,3.7,3.7C487.4,126.4,489,124.7,489,122.7 M476.7,122.7
		c0-2-1.7-3.7-3.7-3.7c-2,0-3.7,1.7-3.7,3.7c0,2,1.7,3.7,3.7,3.7C475.1,126.4,476.7,124.7,476.7,122.7 M489,110.3
		c0-2-1.7-3.7-3.7-3.7c-2,0-3.7,1.7-3.7,3.7c0,2,1.7,3.7,3.7,3.7C487.4,114,489,112.4,489,110.3 M476.7,110.3c0-2-1.7-3.7-3.7-3.7
		c-2,0-3.7,1.7-3.7,3.7c0,2,1.7,3.7,3.7,3.7C475.1,114,476.7,112.4,476.7,110.3 M464.4,125.8h-19.7v1.2h19.7V125.8z M458.2,116.5
		c0-2-1.7-3.7-3.7-3.7s-3.7,1.7-3.7,3.7c0,2,1.7,3.7,3.7,3.7S458.2,118.5,458.2,116.5 M464.4,106h-19.7v1.2h19.7V106z M433.5,122.7
		c0-2-1.7-3.7-3.7-3.7s-3.7,1.7-3.7,3.7c0,2,1.7,3.7,3.7,3.7S433.5,124.7,433.5,122.7 M433.5,110.3c0-2-1.7-3.7-3.7-3.7
		s-3.7,1.7-3.7,3.7c0,2,1.7,3.7,3.7,3.7S433.5,112.4,433.5,110.3 M411.3,119c-2,0-3.7,1.7-3.7,3.7c0,2,1.7,3.7,3.7,3.7
		s3.7-1.7,3.7-3.7C415,120.6,413.4,119,411.3,119 M399,119c-2,0-3.7,1.7-3.7,3.7c0,2,1.7,3.7,3.7,3.7c2,0,3.7-1.7,3.7-3.7
		C402.7,120.6,401,119,399,119 M404.5,126.4h1.2v-19.7h-1.2V126.4z M399,106.6c-2,0-3.7,1.7-3.7,3.7c0,2,1.7,3.7,3.7,3.7
		c2,0,3.7-1.7,3.7-3.7C402.7,108.3,401,106.6,399,106.6 M349.6,119c-2,0-3.7,1.7-3.7,3.7c0,2,1.7,3.7,3.7,3.7c2,0,3.7-1.7,3.7-3.7
		C353.4,120.6,351.7,119,349.6,119 M362,119c-2,0-3.7,1.7-3.7,3.7c0,2,1.7,3.7,3.7,3.7c2,0,3.7-1.7,3.7-3.7
		C365.7,120.6,364,119,362,119 M362,106.6c-2,0-3.7,1.7-3.7,3.7c0,2,1.7,3.7,3.7,3.7c2,0,3.7-1.7,3.7-3.7
		C365.7,108.3,364,106.6,362,106.6 M331.1,120.2c2,0,3.7-1.7,3.7-3.7c0-2-1.7-3.7-3.7-3.7c-2,0-3.7,1.7-3.7,3.7
		C327.4,118.5,329.1,120.2,331.1,120.2 M312.6,106.6c-2,0-3.7,1.7-3.7,3.7c0,2,1.7,3.7,3.7,3.7c2,0,3.7-1.7,3.7-3.7
		C316.3,108.3,314.7,106.6,312.6,106.6 M296.1,106.9l9.9,19.7l1.1-0.5l-9.9-19.7L296.1,106.9z M291.7,125.8h-19.7v1.2h19.7V125.8z
		 M291.7,115.9h-19.7v1.2h19.7V115.9z M291.7,106h-19.7v1.2h19.7V106z M247.3,117.1H267v-1.2h-19.7V117.1z M205.3,122.7
		c0-2-1.7-3.7-3.7-3.7c-2,0-3.7,1.7-3.7,3.7c0,2,1.7,3.7,3.7,3.7C203.7,126.4,205.3,124.7,205.3,122.7 M217.7,115.9h-19.7v1.2h19.7
		V115.9z M217.7,110.3c0-2-1.7-3.7-3.7-3.7c-2,0-3.7,1.7-3.7,3.7c0,2,1.7,3.7,3.7,3.7C216,114,217.7,112.4,217.7,110.3 M205.3,110.3
		c0-2-1.7-3.7-3.7-3.7c-2,0-3.7,1.7-3.7,3.7c0,2,1.7,3.7,3.7,3.7C203.7,114,205.3,112.4,205.3,110.3 M180.6,122.7
		c0-2-1.7-3.7-3.7-3.7c-2,0-3.7,1.7-3.7,3.7c0,2,1.7,3.7,3.7,3.7C179,126.4,180.6,124.7,180.6,122.7 M193,115.9h-19.7v1.2H193V115.9
		z M193,110.3c0-2-1.7-3.7-3.7-3.7c-2,0-3.7,1.7-3.7,3.7c0,2,1.7,3.7,3.7,3.7C191.3,114,193,112.4,193,110.3 M180.6,110.3
		c0-2-1.7-3.7-3.7-3.7c-2,0-3.7,1.7-3.7,3.7c0,2,1.7,3.7,3.7,3.7C179,114,180.6,112.4,180.6,110.3 M168.3,125.8h-19.7v1.2h19.7
		V125.8z M168.3,115.9h-19.7v1.2h19.7V115.9z M168.3,106h-19.7v1.2h19.7V106z M143.6,122.1v-1.2h-6.2c-0.3-1.8-1.8-3.1-3.7-3.1
		c-1.8,0-3.4,1.3-3.7,3.1h-6.2v1.2h6.2c0.3,1.8,1.8,3.1,3.7,3.1c1.8,0,3.4-1.3,3.7-3.1H143.6z M143.6,116.5c0-2-1.7-3.7-3.7-3.7
		c-2,0-3.7,1.7-3.7,3.7c0,2,1.7,3.7,3.7,3.7C142,120.2,143.6,118.5,143.6,116.5 M131.3,116.5c0-2-1.7-3.7-3.7-3.7
		c-2,0-3.7,1.7-3.7,3.7c0,2,1.7,3.7,3.7,3.7C129.7,120.2,131.3,118.5,131.3,116.5 M143.6,112.2V111h-6.2c-0.3-1.8-1.8-3.1-3.7-3.1
		c-1.8,0-3.4,1.3-3.7,3.1h-6.2v1.2h6.2c0.3,1.8,1.8,3.1,3.7,3.1c1.8,0,3.4-1.3,3.7-3.1H143.6z M115.3,106.6c-2,0-3.7,1.7-3.7,3.7
		c0,2,1.7,3.7,3.7,3.7c2,0,3.7-1.7,3.7-3.7C119,108.3,117.3,106.6,115.3,106.6 M98.7,106.9l9.9,19.7l1.1-0.5l-9.9-19.7L98.7,106.9z
		 M94.3,125.8H74.6v1.2h19.7V125.8z M94.3,115.9H74.6v1.2h19.7V115.9z M94.3,106H74.6v1.2h19.7V106z M32.6,122.7
		c0-2-1.7-3.7-3.7-3.7c-2,0-3.7,1.7-3.7,3.7c0,2,1.7,3.7,3.7,3.7C31,126.4,32.6,124.7,32.6,122.7 M45,115.9H25.2v1.2H45V115.9z
		 M45,110.3c0-2-1.7-3.7-3.7-3.7c-2,0-3.7,1.7-3.7,3.7c0,2,1.7,3.7,3.7,3.7C43.3,114,45,112.4,45,110.3 M32.6,110.3
		c0-2-1.7-3.7-3.7-3.7c-2,0-3.7,1.7-3.7,3.7c0,2,1.7,3.7,3.7,3.7C31,114,32.6,112.4,32.6,110.3 M20.3,125.8H0.5v1.2h19.7V125.8z
		 M20.3,115.9H0.5v1.2h19.7V115.9z M20.3,106H0.5v1.2h19.7V106z"/>
	<path class="st0" d="M547,94.3c-2,0-3.7,1.7-3.7,3.7c0,2,1.7,3.7,3.7,3.7c2,0,3.7-1.7,3.7-3.7C550.7,95.9,549.1,94.3,547,94.3
		 M559.4,94.3c-2,0-3.7,1.7-3.7,3.7c0,2,1.7,3.7,3.7,3.7c2,0,3.7-1.7,3.7-3.7C563.1,95.9,561.4,94.3,559.4,94.3 M559.4,82
		c-2,0-3.7,1.7-3.7,3.7c0,2,1.7,3.7,3.7,3.7c2,0,3.7-1.7,3.7-3.7C563.1,83.6,561.4,82,559.4,82 M528.5,95.5c2,0,3.7-1.7,3.7-3.7
		c0-2-1.7-3.7-3.7-3.7c-2,0-3.7,1.7-3.7,3.7C524.8,93.9,526.5,95.5,528.5,95.5 M507.5,98c0-2-1.7-3.7-3.7-3.7s-3.7,1.7-3.7,3.7
		c0,2,1.7,3.7,3.7,3.7S507.5,100,507.5,98 M507.5,85.7c0-2-1.7-3.7-3.7-3.7s-3.7,1.7-3.7,3.7c0,2,1.7,3.7,3.7,3.7
		S507.5,87.7,507.5,85.7 M473,94.3c-2,0-3.7,1.7-3.7,3.7c0,2,1.7,3.7,3.7,3.7c2,0,3.7-1.7,3.7-3.7C476.7,95.9,475.1,94.3,473,94.3
		 M478.6,101.7h1.2V82h-1.2V101.7z M485.3,82c-2,0-3.7,1.7-3.7,3.7c0,2,1.7,3.7,3.7,3.7c2,0,3.7-1.7,3.7-3.7
		C489,83.6,487.4,82,485.3,82 M454.5,95.5c2,0,3.7-1.7,3.7-3.7c0-2-1.7-3.7-3.7-3.7c-2,0-3.7,1.7-3.7,3.7
		C450.8,93.9,452.5,95.5,454.5,95.5 M423.7,94.3c-2,0-3.7,1.7-3.7,3.7c0,2,1.7,3.7,3.7,3.7c2,0,3.7-1.7,3.7-3.7
		C427.4,95.9,425.7,94.3,423.7,94.3 M436,94.3c-2,0-3.7,1.7-3.7,3.7c0,2,1.7,3.7,3.7,3.7c2,0,3.7-1.7,3.7-3.7
		C439.7,95.9,438,94.3,436,94.3 M436,82c-2,0-3.7,1.7-3.7,3.7c0,2,1.7,3.7,3.7,3.7c2,0,3.7-1.7,3.7-3.7C439.7,83.6,438,82,436,82
		 M378,98c0-2-1.7-3.7-3.7-3.7c-2,0-3.7,1.7-3.7,3.7c0,2,1.7,3.7,3.7,3.7C376.4,101.7,378,100,378,98 M379.9,82.2l9.9,19.7l1.1-0.5
		L381,81.7L379.9,82.2z M325,94.3c-2,0-3.7,1.7-3.7,3.7c0,2,1.7,3.7,3.7,3.7c2,0,3.7-1.7,3.7-3.7C328.7,95.9,327,94.3,325,94.3
		 M337.3,94.3c-2,0-3.7,1.7-3.7,3.7c0,2,1.7,3.7,3.7,3.7c2,0,3.7-1.7,3.7-3.7C341,95.9,339.4,94.3,337.3,94.3 M337.3,82
		c-2,0-3.7,1.7-3.7,3.7c0,2,1.7,3.7,3.7,3.7c2,0,3.7-1.7,3.7-3.7C341,83.6,339.4,82,337.3,82 M304,98c0-2-1.7-3.7-3.7-3.7
		c-2,0-3.7,1.7-3.7,3.7c0,2,1.7,3.7,3.7,3.7C302.4,101.7,304,100,304,98 M305.9,82.2l9.9,19.7l1.1-0.5L307,81.7L305.9,82.2z
		 M263.3,82c-2,0-3.7,1.7-3.7,3.7c0,2,1.7,3.7,3.7,3.7c2,0,3.7-1.7,3.7-3.7C267,83.6,265.3,82,263.3,82 M246.7,82.2l9.9,19.7
		l1.1-0.5l-9.9-19.7L246.7,82.2z M242.3,101.1h-19.7v1.2h19.7V101.1z M242.3,91.2h-19.7v1.2h19.7V91.2z M242.3,81.3h-19.7v1.2h19.7
		V81.3z M211.5,98c0-2-1.7-3.7-3.7-3.7c-2,0-3.7,1.7-3.7,3.7c0,2,1.7,3.7,3.7,3.7C209.8,101.7,211.5,100,211.5,98 M211.5,85.7
		c0-2-1.7-3.7-3.7-3.7c-2,0-3.7,1.7-3.7,3.7c0,2,1.7,3.7,3.7,3.7C209.8,89.4,211.5,87.7,211.5,85.7 M173.2,92.4H193v-1.2h-19.7V92.4
		z M156,98c0-2-1.7-3.7-3.7-3.7c-2,0-3.7,1.7-3.7,3.7c0,2,1.7,3.7,3.7,3.7C154.3,101.7,156,100,156,98 M157.9,82.2l9.9,19.7l1.1-0.5
		L159,81.7L157.9,82.2z M123.4,82.2l9.9,19.7l1.1-0.5l-9.9-19.7L123.4,82.2z M133.2,82.2l9.9,19.7l1.1-0.5l-9.9-19.7L133.2,82.2z
		 M102.9,94.3c-2,0-3.7,1.7-3.7,3.7c0,2,1.7,3.7,3.7,3.7c2,0,3.7-1.7,3.7-3.7C106.6,95.9,105,94.3,102.9,94.3 M108.5,101.7h1.2V82
		h-1.2V101.7z M115.3,82c-2,0-3.7,1.7-3.7,3.7c0,2,1.7,3.7,3.7,3.7c2,0,3.7-1.7,3.7-3.7C119,83.6,117.3,82,115.3,82 M94.3,101.1
		H74.6v1.2h19.7V101.1z M94.3,91.2H74.6v1.2h19.7V91.2z M94.3,81.3H74.6v1.2h19.7V81.3z M57.3,98c0-2-1.7-3.7-3.7-3.7
		s-3.7,1.7-3.7,3.7c0,2,1.7,3.7,3.7,3.7S57.3,100,57.3,98 M69.6,91.2H49.9v1.2h19.7V91.2z M69.6,85.7c0-2-1.7-3.7-3.7-3.7
		c-2,0-3.7,1.7-3.7,3.7c0,2,1.7,3.7,3.7,3.7C68,89.4,69.6,87.7,69.6,85.7 M57.3,85.7c0-2-1.7-3.7-3.7-3.7s-3.7,1.7-3.7,3.7
		c0,2,1.7,3.7,3.7,3.7S57.3,87.7,57.3,85.7 M41.3,82c-2,0-3.7,1.7-3.7,3.7c0,2,1.7,3.7,3.7,3.7s3.7-1.7,3.7-3.7
		C45,83.6,43.3,82,41.3,82 M24.7,82.2l9.9,19.7l1.1-0.5l-9.9-19.7L24.7,82.2z M14.1,98c0-2-1.7-3.7-3.7-3.7S6.7,95.9,6.7,98
		c0,2,1.7,3.7,3.7,3.7S14.1,100,14.1,98 M14.1,85.7c0-2-1.7-3.7-3.7-3.7s-3.7,1.7-3.7,3.7c0,2,1.7,3.7,3.7,3.7S14.1,87.7,14.1,85.7"
		/>
	<path class="st0" d="M469.3,67.8H489v-1.2h-19.7V67.8z M460.7,63.5c-2,0-3.7,1.7-3.7,3.7c0,2,1.7,3.7,3.7,3.7s3.7-1.7,3.7-3.7
		C464.4,65.1,462.7,63.5,460.7,63.5 M448.3,63.5c-2,0-3.7,1.7-3.7,3.7c0,2,1.7,3.7,3.7,3.7s3.7-1.7,3.7-3.7
		C452,65.1,450.4,63.5,448.3,63.5 M460,76.8l-4.8-9.6l4.8-9.6l-1.1-0.5l-4.4,8.8l-4.4-8.8l-1.1,0.5l4.8,9.6l-4.8,9.6l1.1,0.5
		l4.4-8.8l4.4,8.8L460,76.8z M429.8,70.9c2,0,3.7-1.7,3.7-3.7c0-2-1.7-3.7-3.7-3.7s-3.7,1.7-3.7,3.7
		C426.1,69.2,427.8,70.9,429.8,70.9 M395.3,67.8H415v-1.2h-19.7V67.8z M365.7,76.4h-19.7v1.2h19.7V76.4z M359.5,67.2
		c0-2-1.7-3.7-3.7-3.7c-2,0-3.7,1.7-3.7,3.7c0,2,1.7,3.7,3.7,3.7C357.9,70.9,359.5,69.2,359.5,67.2 M365.7,56.7h-19.7v1.2h19.7V56.7
		z M337.3,57.3c-2,0-3.7,1.7-3.7,3.7c0,2,1.7,3.7,3.7,3.7c2,0,3.7-1.7,3.7-3.7C341,58.9,339.4,57.3,337.3,57.3 M320.7,57.6l9.9,19.7
		l1.1-0.5L321.8,57L320.7,57.6z M310.2,73.3c0-2-1.7-3.7-3.7-3.7c-2,0-3.7,1.7-3.7,3.7c0,2,1.7,3.7,3.7,3.7
		C308.5,77,310.2,75.4,310.2,73.3 M310.2,61c0-2-1.7-3.7-3.7-3.7c-2,0-3.7,1.7-3.7,3.7c0,2,1.7,3.7,3.7,3.7
		C308.5,64.7,310.2,63,310.2,61 M271.9,67.8h19.7v-1.2h-19.7V67.8z M247.3,67.8H267v-1.2h-19.7V67.8z M236.2,73.3
		c0-2-1.7-3.7-3.7-3.7c-2,0-3.7,1.7-3.7,3.7c0,2,1.7,3.7,3.7,3.7C234.5,77,236.2,75.4,236.2,73.3 M236.2,61c0-2-1.7-3.7-3.7-3.7
		c-2,0-3.7,1.7-3.7,3.7c0,2,1.7,3.7,3.7,3.7C234.5,64.7,236.2,63,236.2,61 M197.4,57.6l9.9,19.7l1.1-0.5L198.5,57L197.4,57.6z
		 M207.2,57.6l9.9,19.7l1.1-0.5L208.3,57L207.2,57.6z M176.9,69.6c-2,0-3.7,1.7-3.7,3.7c0,2,1.7,3.7,3.7,3.7c2,0,3.7-1.7,3.7-3.7
		C180.6,71.3,179,69.6,176.9,69.6 M189.3,69.6c-2,0-3.7,1.7-3.7,3.7c0,2,1.7,3.7,3.7,3.7c2,0,3.7-1.7,3.7-3.7
		C193,71.3,191.3,69.6,189.3,69.6 M189.3,57.3c-2,0-3.7,1.7-3.7,3.7c0,2,1.7,3.7,3.7,3.7c2,0,3.7-1.7,3.7-3.7
		C193,58.9,191.3,57.3,189.3,57.3 M164.6,57.3c-2,0-3.7,1.7-3.7,3.7c0,2,1.7,3.7,3.7,3.7c2,0,3.7-1.7,3.7-3.7
		C168.3,58.9,166.7,57.3,164.6,57.3 M148,57.6l9.9,19.7l1.1-0.5L149.1,57L148,57.6z M131.3,73.3c0-2-1.7-3.7-3.7-3.7
		c-2,0-3.7,1.7-3.7,3.7c0,2,1.7,3.7,3.7,3.7C129.7,77,131.3,75.4,131.3,73.3 M133.2,57.6l9.9,19.7l1.1-0.5L134.3,57L133.2,57.6z
		 M102.9,69.6c-2,0-3.7,1.7-3.7,3.7c0,2,1.7,3.7,3.7,3.7s3.7-1.7,3.7-3.7C106.6,71.3,105,69.6,102.9,69.6 M108.5,77h1.2V57.3h-1.2
		V77z M115.3,57.3c-2,0-3.7,1.7-3.7,3.7c0,2,1.7,3.7,3.7,3.7c2,0,3.7-1.7,3.7-3.7C119,58.9,117.3,57.3,115.3,57.3 M74.6,67.8h19.7
		v-1.2H74.6V67.8z M32.6,73.3c0-2-1.7-3.7-3.7-3.7c-2,0-3.7,1.7-3.7,3.7c0,2,1.7,3.7,3.7,3.7C31,77,32.6,75.4,32.6,73.3 M45,66.5
		H25.2v1.2H45V66.5z M45,61c0-2-1.7-3.7-3.7-3.7c-2,0-3.7,1.7-3.7,3.7c0,2,1.7,3.7,3.7,3.7C43.3,64.7,45,63,45,61 M32.6,61
		c0-2-1.7-3.7-3.7-3.7c-2,0-3.7,1.7-3.7,3.7c0,2,1.7,3.7,3.7,3.7C31,64.7,32.6,63,32.6,61 M20.3,76.4H0.5v1.2h19.7V76.4z M20.3,66.5
		H0.5v1.2h19.7V66.5z M20.3,56.7H0.5v1.2h19.7V56.7z"/>
	<path class="st0" d="M522.4,52.4c2,0,3.7-1.7,3.7-3.7c0-2-1.7-3.7-3.7-3.7c-2,0-3.7,1.7-3.7,3.7C518.7,50.7,520.3,52.4,522.4,52.4
		 M534.1,32.6h-1.2v19.7h1.2V32.6z M522.4,40c2,0,3.7-1.7,3.7-3.7c0-2-1.7-3.7-3.7-3.7c-2,0-3.7,1.7-3.7,3.7
		C518.7,38.4,520.3,40,522.4,40 M513.7,51.7H494V53h19.7V51.7z M513.7,41.9H494v1.2h19.7V41.9z M513.7,32H494v1.2h19.7V32z
		 M489,48.7c0-2-1.7-3.7-3.7-3.7c-2,0-3.7,1.7-3.7,3.7c0,2,1.7,3.7,3.7,3.7C487.4,52.4,489,50.7,489,48.7 M476.7,48.7
		c0-2-1.7-3.7-3.7-3.7c-2,0-3.7,1.7-3.7,3.7c0,2,1.7,3.7,3.7,3.7C475.1,52.4,476.7,50.7,476.7,48.7 M489,36.3c0-2-1.7-3.7-3.7-3.7
		c-2,0-3.7,1.7-3.7,3.7c0,2,1.7,3.7,3.7,3.7C487.4,40,489,38.4,489,36.3 M476.7,36.3c0-2-1.7-3.7-3.7-3.7c-2,0-3.7,1.7-3.7,3.7
		c0,2,1.7,3.7,3.7,3.7C475.1,40,476.7,38.4,476.7,36.3 M444.6,43.1h19.7v-1.2h-19.7V43.1z M429.8,46.2c2,0,3.7-1.7,3.7-3.7
		c0-2-1.7-3.7-3.7-3.7s-3.7,1.7-3.7,3.7C426.1,44.5,427.8,46.2,429.8,46.2 M394.8,32.9l9.9,19.7l1.1-0.5l-9.9-19.7L394.8,32.9z
		 M404.6,32.9l9.9,19.7l1.1-0.5l-9.9-19.7L404.6,32.9z M353.4,48.7c0-2-1.7-3.7-3.7-3.7c-2,0-3.7,1.7-3.7,3.7c0,2,1.7,3.7,3.7,3.7
		C351.7,52.4,353.4,50.7,353.4,48.7 M355.3,32.9l9.9,19.7l1.1-0.5l-9.9-19.7L355.3,32.9z M300.3,45c-2,0-3.7,1.7-3.7,3.7
		c0,2,1.7,3.7,3.7,3.7c2,0,3.7-1.7,3.7-3.7C304,46.6,302.4,45,300.3,45 M312.6,45c-2,0-3.7,1.7-3.7,3.7c0,2,1.7,3.7,3.7,3.7
		s3.7-1.7,3.7-3.7C316.3,46.6,314.7,45,312.6,45 M312.6,32.6c-2,0-3.7,1.7-3.7,3.7c0,2,1.7,3.7,3.7,3.7s3.7-1.7,3.7-3.7
		C316.3,34.3,314.7,32.6,312.6,32.6 M285.5,48.7c0-2-1.7-3.7-3.7-3.7c-2,0-3.7,1.7-3.7,3.7c0,2,1.7,3.7,3.7,3.7
		C283.8,52.4,285.5,50.7,285.5,48.7 M285.5,36.3c0-2-1.7-3.7-3.7-3.7c-2,0-3.7,1.7-3.7,3.7c0,2,1.7,3.7,3.7,3.7
		C283.8,40,285.5,38.4,285.5,36.3 M232.5,46.2c2,0,3.7-1.7,3.7-3.7c0-2-1.7-3.7-3.7-3.7c-2,0-3.7,1.7-3.7,3.7
		C228.8,44.5,230.4,46.2,232.5,46.2 M201.6,52.4c2,0,3.7-1.7,3.7-3.7c0-2-1.7-3.7-3.7-3.7c-2,0-3.7,1.7-3.7,3.7
		C197.9,50.7,199.6,52.4,201.6,52.4 M213.3,32.6h-1.2v19.7h1.2V32.6z M201.6,40c2,0,3.7-1.7,3.7-3.7c0-2-1.7-3.7-3.7-3.7
		c-2,0-3.7,1.7-3.7,3.7C197.9,38.4,199.6,40,201.6,40 M193,51.7h-19.7V53H193V51.7z M193,41.9h-19.7v1.2H193V41.9z M193,32h-19.7
		v1.2H193V32z M164.6,52.4c2,0,3.7-1.7,3.7-3.7c0-2-1.7-3.7-3.7-3.7c-2,0-3.7,1.7-3.7,3.7C160.9,50.7,162.6,52.4,164.6,52.4
		 M151.7,32.6h-1.2v19.7h1.2V32.6z M156.6,32.6h-1.2v19.7h1.2V32.6z M164.6,40c2,0,3.7-1.7,3.7-3.7c0-2-1.7-3.7-3.7-3.7
		c-2,0-3.7,1.7-3.7,3.7C160.9,38.4,162.6,40,164.6,40 M109.1,46.2c2,0,3.7-1.7,3.7-3.7c0-2-1.7-3.7-3.7-3.7c-2,0-3.7,1.7-3.7,3.7
		C105.4,44.5,107.1,46.2,109.1,46.2 M78.3,45c-2,0-3.7,1.7-3.7,3.7c0,2,1.7,3.7,3.7,3.7c2,0,3.7-1.7,3.7-3.7
		C82,46.6,80.3,45,78.3,45 M90.6,45c-2,0-3.7,1.7-3.7,3.7c0,2,1.7,3.7,3.7,3.7c2,0,3.7-1.7,3.7-3.7C94.3,46.6,92.6,45,90.6,45
		 M90.6,32.6c-2,0-3.7,1.7-3.7,3.7c0,2,1.7,3.7,3.7,3.7c2,0,3.7-1.7,3.7-3.7C94.3,34.3,92.6,32.6,90.6,32.6 M53.6,45
		c-2,0-3.7,1.7-3.7,3.7c0,2,1.7,3.7,3.7,3.7c2,0,3.7-1.7,3.7-3.7C57.3,46.6,55.6,45,53.6,45 M59.1,52.4h1.2V32.6h-1.2V52.4z
		 M65.9,32.6c-2,0-3.7,1.7-3.7,3.7c0,2,1.7,3.7,3.7,3.7c2,0,3.7-1.7,3.7-3.7C69.6,34.3,68,32.6,65.9,32.6 M45,51.7H25.2V53H45V51.7z
		 M45,41.9H25.2v1.2H45V41.9z M45,32H25.2v1.2H45V32z M0,32.9l9.9,19.7l1.1-0.5L1.1,32.3L0,32.9z M9.9,32.9l9.9,19.7l1.1-0.5
		L11,32.3L9.9,32.9z"/>
</g>
</svg>
